<?xml version="1.0" encoding="UTF-8" standalone="no"?>
<!-- Created with Inkscape (http://www.inkscape.org/) -->

<svg
   xmlns:dc="http://purl.org/dc/elements/1.1/"
   xmlns:cc="http://creativecommons.org/ns#"
   xmlns:rdf="http://www.w3.org/1999/02/22-rdf-syntax-ns#"
   xmlns:svg="http://www.w3.org/2000/svg"
   xmlns="http://www.w3.org/2000/svg"
   xmlns:xlink="http://www.w3.org/1999/xlink"
   xmlns:sodipodi="http://sodipodi.sourceforge.net/DTD/sodipodi-0.dtd"
   xmlns:inkscape="http://www.inkscape.org/namespaces/inkscape"
   width="64"
   version="1.1"
   height="64"
   viewBox="0 0 64 64"
   id="svg2"
   inkscape:version="0.92.2 2405546, 2018-03-11"
   sodipodi:docname="folder-templates.svg">
  <sodipodi:namedview
     pagecolor="#ffffff"
     bordercolor="#666666"
     borderopacity="1"
     objecttolerance="10"
     gridtolerance="10"
     guidetolerance="10"
     inkscape:pageopacity="0"
     inkscape:pageshadow="2"
     inkscape:window-width="1920"
     inkscape:window-height="1022"
     id="namedview17"
     showgrid="true"
     inkscape:zoom="10.429825"
     inkscape:cx="6.8222099"
     inkscape:cy="34.067489"
     inkscape:window-x="0"
     inkscape:window-y="28"
     inkscape:window-maximized="1"
     inkscape:current-layer="layer1">
    <inkscape:grid
       type="xygrid"
       id="grid830" />
  </sodipodi:namedview>
  <defs
     id="defs5455">
    <linearGradient
       inkscape:collect="always"
       id="linearGradient836">
      <stop
         style="stop-color:#147eb8;stop-opacity:1;"
         offset="0"
         id="stop832" />
      <stop
         style="stop-color:#22a3e6;stop-opacity:1"
         offset="1"
         id="stop834" />
    </linearGradient>
    <linearGradient
       id="linearGradient4172-7">
      <stop
         style="stop-color:#4183d7"
         id="stop4174-9" />
      <stop
         offset="1"
         style="stop-color:#5b94df"
         id="stop4176-4" />
    </linearGradient>
    <linearGradient
       inkscape:collect="always"
       id="linearGradient4172-5">
      <stop
         style="stop-color:#3daee9"
         id="stop4174-6" />
      <stop
         offset="1"
         style="stop-color:#6cc1ef"
         id="stop4176-6" />
    </linearGradient>
    <linearGradient
       inkscape:collect="always"
       xlink:href="#linearGradient836"
       id="linearGradient838"
       x1="419.57144"
       y1="501.79807"
       x2="419.57144"
       y2="489.79807"
       gradientUnits="userSpaceOnUse" />
    <linearGradient
       inkscape:collect="always"
       xlink:href="#linearGradient4172-5"
       id="linearGradient840"
       gradientUnits="userSpaceOnUse"
       x1="429.57144"
       y1="541.79797"
       x2="429.57144"
       y2="496.798" />
    <linearGradient
       id="h"
       y1="43.922001"
       y2="2.987"
       x2="0"
       gradientUnits="userSpaceOnUse">
      <stop
         stop-color="#22a7f0"
         id="stop29" />
      <stop
         offset="1"
         stop-color="#19b5fe"
         id="stop31" />
    </linearGradient>
    <radialGradient
       cx="30.299999"
       cy="38.130001"
       xlink:href="#a"
       id="l"
       r="16"
       gradientUnits="userSpaceOnUse"
       gradientTransform="matrix(0.53188,-0.49081,0.78529,0.851,-19.809,-0.579)" />
    <linearGradient
       id="a">
      <stop
         stop-color="#dcedfe"
         stop-opacity=".742"
         id="stop2" />
      <stop
         offset="1"
         stop-color="#dcedfe"
         stop-opacity="0"
         id="stop4" />
    </linearGradient>
    <radialGradient
       cx="31.01"
       cy="48.672001"
       xlink:href="#a"
       id="k"
       r="16"
       gradientUnits="userSpaceOnUse"
       gradientTransform="matrix(0.59169,-0.93256,2.10028,1.33257,-80.07,8.555)" />
    <linearGradient
       id="i"
       y1="43.922001"
       y2="34.040001"
       x2="0"
       gradientUnits="userSpaceOnUse">
      <stop
         stop-color="#c8e3fe"
         id="stop34" />
      <stop
         offset="1"
         stop-color="#e4f1fe"
         id="stop36" />
    </linearGradient>
    <linearGradient
       id="j"
       y1="33.998001"
       y2="44"
       x1="19"
       x2="27"
       gradientUnits="userSpaceOnUse">
      <stop
         stop-color="#383e51"
         id="stop39" />
      <stop
         offset="1"
         stop-color="#655c6f"
         stop-opacity="0"
         id="stop41" />
    </linearGradient>
    <linearGradient
       id="b"
       y1="-0.017999999"
       x1="10.972"
       y2="30.416"
       gradientUnits="userSpaceOnUse"
       x2="40.709"
       gradientTransform="translate(15.653,1.018)">
      <stop
         id="stop7" />
      <stop
         offset="1"
         stop-opacity="0"
         id="stop9" />
    </linearGradient>
    <linearGradient
       xlink:href="#b"
       id="c"
       y1="4"
       x1="11"
       y2="22.129999"
       gradientUnits="userSpaceOnUse"
       x2="29.129999"
       gradientTransform="translate(23.03,5.02)" />
    <linearGradient
       id="d"
       y1="6.9819999"
       x1="7.3470001"
       y2="45.981998"
       gradientUnits="userSpaceOnUse"
       x2="30.347"
       gradientTransform="translate(23.03,5.02)">
      <stop
         stop-color="#eeeeee"
         id="stop13" />
      <stop
         offset="1"
         stop-color="#cccccc"
         id="stop15" />
    </linearGradient>
    <linearGradient
       id="f"
       y1="42.986"
       x1="23.219999"
       y2="33"
       gradientUnits="userSpaceOnUse"
       x2="19"
       gradientTransform="matrix(1,0,0,1.25,11.03,-4.982)">
      <stop
         stop-color="#70431c"
         id="stop23" />
      <stop
         offset="1"
         stop-color="#be8c5a"
         id="stop25" />
    </linearGradient>
    <linearGradient
       xlink:href="#b"
       id="g"
       y1="38.957001"
       x1="13.98"
       y2="46"
       gradientUnits="userSpaceOnUse"
       x2="21"
       gradientTransform="translate(16.03,1.018)" />
    <linearGradient
       id="e"
       y1="36"
       y2="32"
       gradientUnits="userSpaceOnUse"
       x2="0"
       gradientTransform="matrix(1,0,0,1.0091,11.528,4.726)">
      <stop
         stop-color="#c58c00"
         id="stop18" />
      <stop
         offset="1"
         stop-color="#ffc318"
         id="stop20" />
    </linearGradient>
    <linearGradient
       y2="30.416"
       x2="40.709"
       y1="-0.017999999"
       x1="10.972"
       gradientTransform="translate(15.653,1.018)"
       gradientUnits="userSpaceOnUse"
       id="linearGradient183"
       xlink:href="#b"
       inkscape:collect="always" />
  </defs>
  <metadata
     id="metadata5458">
    <rdf:RDF>
      <cc:Work
         rdf:about="">
        <dc:format>image/svg+xml</dc:format>
        <dc:type
           rdf:resource="http://purl.org/dc/dcmitype/StillImage" />
        <dc:title />
      </cc:Work>
    </rdf:RDF>
  </metadata>
  <g
     inkscape:label="Capa 1"
     inkscape:groupmode="layer"
     id="layer1"
     transform="matrix(1 0 0 1 -384.57143 -483.798)">
    <g
       transform="translate(-5e-6,-5e-5)"
       id="g4193">
      <path
         d="m 387.57144,503.79812 0,1 19.99999,0 3,-5 -4,4 z"
         id="path4224"
         style="fill:#ffffff;fill-opacity:0.235294;fill-rule:evenodd"
         inkscape:connector-curvature="0" />
      <path
         sodipodi:nodetypes="ccccccc"
         inkscape:connector-curvature="0"
         id="rect4160"
         d="m 387.57144,489.798 23.99999,0 5,6 29,0 10e-6,38 -58,0 z"
         style="fill:url(#linearGradient838);fill-opacity:1;fill-rule:evenodd;stroke:none;stroke-width:1px;stroke-linecap:butt;stroke-linejoin:miter;stroke-opacity:1" />
      <path
         sodipodi:nodetypes="cccccccc"
         inkscape:connector-curvature="0"
         style="fill:#ffffff;fill-opacity:0.235294;fill-rule:evenodd"
         id="path4166"
         d="m 411.57143,489.798 5,7 2,0 27,0 0,-1 -27,0 -2,0 z" />
      <path
         sodipodi:nodetypes="ccccccc"
         inkscape:connector-curvature="0"
         id="rect3347"
         d="m 387.57143,502.798 24,0 5,-6 29,0 10e-6,45 -58,0 z"
         style="fill:url(#linearGradient840);fill-opacity:1;fill-rule:evenodd;stroke:none;stroke-width:1px;stroke-linecap:butt;stroke-linejoin:miter;stroke-opacity:1" />
      <path
         d="m 416.57143,496.798 -4,7 -4,0 -21,0 0,-1 21,0 3,0 z"
         id="path4168"
         style="fill:#ffffff;fill-opacity:0.235294;fill-rule:evenodd"
         inkscape:connector-curvature="0"
         sodipodi:nodetypes="cccccccc" />
      <path
         sodipodi:nodetypes="cccccc"
         d="m 387.57143,501.798 0,1 24,0 5,-6 -6,5 z"
         id="path4228"
         style="fill:#000000;fill-opacity:0.23529412;fill-rule:evenodd"
         inkscape:connector-curvature="0" />
      <path
         d="m 387.57143,540.7981 0,1 1,0 56,0 1,0 0,-1 -1,0 -56,0 -1,0 z"
         id="path4151-2"
         style="fill-opacity:0.235294"
         inkscape:connector-curvature="0" />
      <rect
         y="493.798"
         x="390.57144"
         height="3.9999897"
         width="17.999998"
         id="rect4184"
         style="fill:#000000;fill-opacity:0.23529412;stroke:none" />
      <rect
         style="fill:#ffffff;fill-opacity:1;stroke:none"
         id="rect4186"
         width="16.000004"
         height="1.9999911"
         x="391.57144"
         y="494.798" />
      <path
         sodipodi:nodetypes="ccccc"
         inkscape:connector-curvature="0"
         id="rect4190"
         d="m 391.57142,494.798 6.00001,0 0,2 -6.00001,0 z"
         style="fill:#17c4fc;fill-opacity:1;stroke:none" />
    </g>
    <g
       transform="matrix(0.53125,0,0,0.57163256,402.16518,505.79514)"
       id="g108">
      <path
         style="fill:url(#h)"
         inkscape:connector-curvature="0"
         id="path48"
         d="M 40,3 V 44 H 18 L 8,34 V 3 L 18.354,2.987 Z" />
      <g
         style="color:#000000;color-interpolation:sRGB;color-interpolation-filters:linearRGB;color-rendering:auto;image-rendering:auto;shape-rendering:auto;text-rendering:auto"
         id="g54">
        <path
           style="opacity:0.647;fill:url(#l)"
           inkscape:connector-curvature="0"
           id="path50"
           d="m 8,5 v 14 l 1,1 v -2 h 2 v 2 H 9 l 1,1 h 1 v 1 l 1,1 v -2 h 2 v 2 h -2 l 1,1 h 1 v 1 l 1,1 v -2 h 2 v 2 h -2 l 1,1 h 1 v 1 l 1,1 v -2 h 2 v 2 h 1 v -2 h 2 v 2 h 1 v -2 h 2 v 2 h 1 v -2 h 2 v 2 h 1 v -2 h 2 v 2 h 1 v -2 h 2 v 2 h 1 v -2 h 2 v 2 h 1 v -2 h 1 v -1 h -1 v -2 h 1 v -1 h -1 v -2 h 1 v -1 h -1 v -2 h 1 v -1 h -1 v -2 h 1 v -1 h -1 v -2 h 1 V 11 H 39 V 9 h 1 V 8 H 39 V 6 h 1 V 5 H 11 Z m 1,1 h 2 V 8 H 9 Z m 3,0 h 2 v 2 h -2 z m 3,0 h 2 v 2 h -2 z m 3,0 h 2 v 2 h -2 z m 3,0 h 2 v 2 h -2 z m 3,0 h 2 v 2 h -2 z m 3,0 h 2 v 2 h -2 z m 3,0 h 2 v 2 h -2 z m 3,0 h 2 v 2 h -2 z m 3,0 h 2 V 8 H 36 Z M 9,9 h 2 v 2 H 9 Z m 3,0 h 2 v 2 h -2 z m 3,0 h 2 v 2 h -2 z m 3,0 h 2 v 2 h -2 z m 3,0 h 2 v 2 h -2 z m 3,0 h 2 v 2 h -2 z m 3,0 h 2 v 2 h -2 z m 3,0 h 2 v 2 h -2 z m 3,0 h 2 v 2 h -2 z m 3,0 h 2 v 2 H 36 Z M 9,12 h 2 v 2 H 9 Z m 3,0 h 2 v 2 h -2 z m 3,0 h 2 v 2 h -2 z m 3,0 h 2 v 2 h -2 z m 3,0 h 2 v 2 h -2 z m 3,0 h 2 v 2 h -2 z m 3,0 h 2 v 2 h -2 z m 3,0 h 2 v 2 h -2 z m 3,0 h 2 v 2 h -2 z m 3,0 h 2 v 2 H 36 Z M 9,15 h 2 v 2 H 9 Z m 3,0 h 2 v 2 h -2 z m 3,0 h 2 v 2 h -2 z m 3,0 h 2 v 2 h -2 z m 3,0 h 2 v 2 h -2 z m 3,0 h 2 v 2 h -2 z m 3,0 h 2 v 2 h -2 z m 3,0 h 2 v 2 h -2 z m 3,0 h 2 v 2 h -2 z m 3,0 h 2 v 2 h -2 z m -24,3 h 2 v 2 h -2 z m 3,0 h 2 v 2 h -2 z m 3,0 h 2 v 2 h -2 z m 3,0 h 2 v 2 h -2 z m 3,0 h 2 v 2 h -2 z m 3,0 h 2 v 2 h -2 z m 3,0 h 2 v 2 h -2 z m 3,0 h 2 v 2 h -2 z m 3,0 h 2 v 2 h -2 z m -21,3 h 2 v 2 h -2 z m 3,0 h 2 v 2 h -2 z m 3,0 h 2 v 2 h -2 z m 3,0 h 2 v 2 h -2 z m 3,0 h 2 v 2 h -2 z m 3,0 h 2 v 2 h -2 z m 3,0 h 2 v 2 h -2 z m 3,0 h 2 v 2 h -2 z m -18,3 h 2 v 2 h -2 z m 3,0 h 2 v 2 h -2 z m 3,0 h 2 v 2 h -2 z m 3,0 h 2 v 2 h -2 z m 3,0 h 2 v 2 h -2 z m 3,0 h 2 v 2 h -2 z m 3,0 h 2 v 2 h -2 z" />
        <path
           style="fill:url(#k)"
           inkscape:connector-curvature="0"
           id="path52"
           d="m 8,20 v 14 l 1,1 v -2 h 2 v 2 H 9 l 1,1 h 1 v 1 l 1,1 v -2 h 2 v 2 h -2 l 1,1 h 1 v 1 l 1,1 v -2 h 2 v 2 h -2 l 1,1 h 1 v 1 l 1,1 v -2 h 2 v 2 h 1 v -2 h 2 v 2 h 1 v -2 h 2 v 2 h 1 v -2 h 2 v 2 h 1 v -2 h 2 v 2 h 1 v -2 h 2 v 2 h 1 v -2 h 2 v 2 h 1 v -2 h 1 v -1 h -1 v -2 h 1 v -1 h -1 v -2 h 1 v -1 h -1 v -2 h 1 v -1 h -1 v -2 h 1 v -1 h -1 v -2 h 1 v -1 h -1 v -2 h 1 v -1 h -1 v -2 h 1 V 20 H 11 Z m 1,1 h 2 v 2 H 9 Z m 3,0 h 2 v 2 h -2 z m 3,0 h 2 v 2 h -2 z m 3,0 h 2 v 2 h -2 z m 3,0 h 2 v 2 h -2 z m 3,0 h 2 v 2 h -2 z m 3,0 h 2 v 2 h -2 z m 3,0 h 2 v 2 h -2 z m 3,0 h 2 v 2 h -2 z m 3,0 h 2 v 2 H 36 Z M 9,24 h 2 v 2 H 9 Z m 3,0 h 2 v 2 h -2 z m 3,0 h 2 v 2 h -2 z m 3,0 h 2 v 2 h -2 z m 3,0 h 2 v 2 h -2 z m 3,0 h 2 v 2 h -2 z m 3,0 h 2 v 2 h -2 z m 3,0 h 2 v 2 h -2 z m 3,0 h 2 v 2 h -2 z m 3,0 h 2 v 2 H 36 Z M 9,27 h 2 v 2 H 9 Z m 3,0 h 2 v 2 h -2 z m 3,0 h 2 v 2 h -2 z m 3,0 h 2 v 2 h -2 z m 3,0 h 2 v 2 h -2 z m 3,0 h 2 v 2 h -2 z m 3,0 h 2 v 2 h -2 z m 3,0 h 2 v 2 h -2 z m 3,0 h 2 v 2 h -2 z m 3,0 h 2 v 2 H 36 Z M 9,30 h 2 v 2 H 9 Z m 3,0 h 2 v 2 h -2 z m 3,0 h 2 v 2 h -2 z m 3,0 h 2 v 2 h -2 z m 3,0 h 2 v 2 h -2 z m 3,0 h 2 v 2 h -2 z m 3,0 h 2 v 2 h -2 z m 3,0 h 2 v 2 h -2 z m 3,0 h 2 v 2 h -2 z m 3,0 h 2 v 2 h -2 z m -24,3 h 2 v 2 h -2 z m 3,0 h 2 v 2 h -2 z m 3,0 h 2 v 2 h -2 z m 3,0 h 2 v 2 h -2 z m 3,0 h 2 v 2 h -2 z m 3,0 h 2 v 2 h -2 z m 3,0 h 2 v 2 h -2 z m 3,0 h 2 v 2 h -2 z m 3,0 h 2 v 2 h -2 z m -21,3 h 2 v 2 h -2 z m 3,0 h 2 v 2 h -2 z m 3,0 h 2 v 2 h -2 z m 3,0 h 2 v 2 h -2 z m 3,0 h 2 v 2 h -2 z m 3,0 h 2 v 2 h -2 z m 3,0 h 2 v 2 h -2 z m 3,0 h 2 v 2 h -2 z m -18,3 h 2 v 2 h -2 z m 3,0 h 2 v 2 h -2 z m 3,0 h 2 v 2 h -2 z m 3,0 h 2 v 2 h -2 z m 3,0 h 2 v 2 h -2 z m 3,0 h 2 v 2 h -2 z m 3,0 h 2 v 2 h -2 z" />
      </g>
      <g
         id="g60"
         transform="scale(-1,1)">
        <rect
           style="fill:#2e3132;fill-opacity:0.294"
           id="rect56"
           height="1"
           rx="0"
           y="43"
           x="-40"
           width="22" />
        <rect
           style="fill:#ffffff;fill-opacity:0.41000001"
           id="rect58"
           height="1"
           y="3"
           x="-40"
           width="32" />
      </g>
      <g
         style="fill-rule:evenodd"
         id="g66">
        <path
           style="fill:url(#i)"
           inkscape:connector-curvature="0"
           id="path62"
           d="M 8,34 18,44 V 34 Z" />
        <path
           style="opacity:0.2;fill:url(#j)"
           inkscape:connector-curvature="0"
           id="path64"
           d="M 28,44 18,34 v 10 z" />
      </g>
      <path
         style="fill:#0c3155;fill-opacity:0.47400004"
         inkscape:connector-curvature="0"
         id="path68"
         d="M 29.02,2.987 H 16.291 c -3.949,0.231 -5.847,2.432 -6.771,4.589 -1.573,5.559 1.063,11.493 6.414,11.613 2.919,0 5.45,-1.529 7.592,-3.348 0.328,-0.278 4.4,-3.02 9.948,-3.329 l 0.278,-3.261 c -6.514,1.106 -11.32,5.03 -12.199,5.955 -1.554,1.644 -3.329,2.462 -5.334,2.462 -5.104,-0.667 -5.214,-6.462 -3.618,-9.356 0,0 1.893,-4.66 16.419,-5.325" />
      <g
         style="fill-rule:evenodd"
         id="g74">
        <path
           style="opacity:0.2;fill:url(#linearGradient183)"
           inkscape:connector-curvature="0"
           id="path70"
           d="m 37.22,9.791 -0.57,1.227 1,34 h 1.857 l 0.309,-32.63 z" />
        <path
           style="opacity:0.2;fill:url(#c)"
           inkscape:connector-curvature="0"
           id="path72"
           d="m 34.03,9.02 2,2 2,20 -7,2 z" />
      </g>
      <path
         style="fill:url(#d)"
         inkscape:connector-curvature="0"
         id="path76"
         d="m 34.03,9.02 c -1.105,0 -2,0.895 -2,2 10e-4,0.652 0.32,1.263 0.855,1.637 -1.466,4.427 -4.145,11.653 -6.855,14.363 0,0 3.977,6.02 3.977,10.02 h 10 c 0,-4 4.02,-10.02 4.02,-10.02 -2.71,-2.71 -5.387,-9.934 -6.854,-14.361 0.535,-0.374 0.853,-0.986 0.854,-1.639 0,-1.105 -0.895,-2 -2,-2 v 18.27 c 0.618,0.357 0.999,1.017 1,1.73 0,1.105 -0.895,2 -2,2 -1.105,0 -2,-0.895 -2,-2 10e-4,-0.713 0.382,-1.372 1,-1.729 V 13.02 Z" />
      <rect
         style="fill:url(#f)"
         id="rect78"
         height="5.0500002"
         rx="0"
         y="39.963001"
         x="30"
         width="10.02" />
      <path
         style="opacity:0.2;fill:url(#g);fill-rule:evenodd"
         inkscape:connector-curvature="0"
         id="path80"
         d="m 30.03,40.02 5,5 h 5 V 40 Z" />
      <path
         style="fill:url(#e)"
         inkscape:connector-curvature="0"
         id="path82"
         d="m 30.03,37.02 h 10 c 0.831,0 1.5,0.675 1.5,1.514 0,0.839 -0.669,1.514 -1.5,1.514 h -10 c -0.831,0 -1.5,-0.675 -1.5,-1.514 0,-0.839 0.669,-1.514 1.5,-1.514" />
    </g>
  </g>
</svg>
