<?xml version="1.0" encoding="UTF-8" standalone="no"?>
<!-- Created with Inkscape (http://www.inkscape.org/) -->

<svg
   xmlns:dc="http://purl.org/dc/elements/1.1/"
   xmlns:cc="http://creativecommons.org/ns#"
   xmlns:rdf="http://www.w3.org/1999/02/22-rdf-syntax-ns#"
   xmlns:svg="http://www.w3.org/2000/svg"
   xmlns="http://www.w3.org/2000/svg"
   xmlns:xlink="http://www.w3.org/1999/xlink"
   xmlns:sodipodi="http://sodipodi.sourceforge.net/DTD/sodipodi-0.dtd"
   xmlns:inkscape="http://www.inkscape.org/namespaces/inkscape"
   width="64"
   version="1.1"
   height="64"
   viewBox="0 0 64 64"
   id="svg2"
   inkscape:version="0.92.2 2405546, 2018-03-11"
   sodipodi:docname="system-file-manager.svg">
  <sodipodi:namedview
     pagecolor="#ffffff"
     bordercolor="#666666"
     borderopacity="1"
     objecttolerance="10"
     gridtolerance="10"
     guidetolerance="10"
     inkscape:pageopacity="0"
     inkscape:pageshadow="2"
     inkscape:window-width="1920"
     inkscape:window-height="1022"
     id="namedview17"
     showgrid="true"
     inkscape:zoom="2.6074563"
     inkscape:cx="18.04024"
     inkscape:cy="26.397178"
     inkscape:window-x="0"
     inkscape:window-y="28"
     inkscape:window-maximized="1"
     inkscape:current-layer="g25">
    <inkscape:grid
       type="xygrid"
       id="grid830" />
  </sodipodi:namedview>
  <defs
     id="defs5455">
    <linearGradient
       inkscape:collect="always"
       id="linearGradient836">
      <stop
         style="stop-color:#147eb8;stop-opacity:1;"
         offset="0"
         id="stop832" />
      <stop
         style="stop-color:#22a3e6;stop-opacity:1"
         offset="1"
         id="stop834" />
    </linearGradient>
    <linearGradient
       id="linearGradient4172-7">
      <stop
         style="stop-color:#4183d7"
         id="stop4174-9" />
      <stop
         offset="1"
         style="stop-color:#5b94df"
         id="stop4176-4" />
    </linearGradient>
    <linearGradient
       inkscape:collect="always"
       id="linearGradient4172-5">
      <stop
         style="stop-color:#3daee9"
         id="stop4174-6" />
      <stop
         offset="1"
         style="stop-color:#6cc1ef"
         id="stop4176-6" />
    </linearGradient>
    <linearGradient
       inkscape:collect="always"
       xlink:href="#linearGradient836"
       id="linearGradient838"
       x1="419.57144"
       y1="501.79807"
       x2="419.57144"
       y2="489.79807"
       gradientUnits="userSpaceOnUse" />
    <linearGradient
       inkscape:collect="always"
       xlink:href="#linearGradient4172-5"
       id="linearGradient840"
       gradientUnits="userSpaceOnUse"
       x1="429.57144"
       y1="541.79797"
       x2="429.57144"
       y2="496.798" />
    <linearGradient
       id="c"
       y1="-0.88300002"
       x1="-41.259998"
       y2="37.956001"
       x2="-2.994"
       gradientUnits="userSpaceOnUse"
       gradientTransform="matrix(1.0000229,0,0,1.0000026,72.256004,-17.07359)">
      <stop
         stop-color="#21c9fb"
         id="stop8" />
      <stop
         offset="1"
         stop-color="#1a86f2"
         id="stop10" />
    </linearGradient>
    <linearGradient
       xlink:href="#a"
       id="b"
       y1="9.2679996"
       x1="-28.756001"
       y2="27.436001"
       x2="-10.858"
       gradientUnits="userSpaceOnUse"
       gradientTransform="translate(0,-1.022)" />
    <linearGradient
       id="a"
       y1="9.1780005"
       x1="-14.65"
       y2="17.521999"
       x2="-6.4299998"
       gradientUnits="userSpaceOnUse"
       gradientTransform="translate(1.01,-1.022)">
      <stop
         id="stop2" />
      <stop
         offset="1"
         stop-opacity="0"
         id="stop4" />
    </linearGradient>
    <linearGradient
       y2="17.521999"
       x2="-6.4299998"
       y1="9.1780005"
       x1="-14.65"
       gradientTransform="translate(1.01,-1.022)"
       gradientUnits="userSpaceOnUse"
       id="linearGradient60"
       xlink:href="#a"
       inkscape:collect="always" />
  </defs>
  <metadata
     id="metadata5458">
    <rdf:RDF>
      <cc:Work
         rdf:about="">
        <dc:format>image/svg+xml</dc:format>
        <dc:type
           rdf:resource="http://purl.org/dc/dcmitype/StillImage" />
        <dc:title></dc:title>
      </cc:Work>
    </rdf:RDF>
  </metadata>
  <g
     inkscape:label="Capa 1"
     inkscape:groupmode="layer"
     id="layer1"
     transform="matrix(1 0 0 1 -384.57143 -483.798)">
    <g
       transform="translate(-5e-6,-5e-5)"
       id="g4193">
      <path
         d="m 387.57144,503.79812 0,1 19.99999,0 3,-5 -4,4 z"
         id="path4224"
         style="fill:#ffffff;fill-opacity:0.235294;fill-rule:evenodd"
         inkscape:connector-curvature="0" />
      <path
         sodipodi:nodetypes="ccccccc"
         inkscape:connector-curvature="0"
         id="rect4160"
         d="m 387.57144,489.798 23.99999,0 5,6 29,0 10e-6,38 -58,0 z"
         style="fill:url(#linearGradient838);fill-opacity:1;fill-rule:evenodd;stroke:none;stroke-width:1px;stroke-linecap:butt;stroke-linejoin:miter;stroke-opacity:1" />
      <path
         sodipodi:nodetypes="cccccccc"
         inkscape:connector-curvature="0"
         style="fill:#ffffff;fill-opacity:0.235294;fill-rule:evenodd"
         id="path4166"
         d="m 411.57143,489.798 5,7 2,0 27,0 0,-1 -27,0 -2,0 z" />
      <path
         sodipodi:nodetypes="ccccccc"
         inkscape:connector-curvature="0"
         id="rect3347"
         d="m 387.57143,502.798 24,0 5,-6 29,0 10e-6,45 -58,0 z"
         style="fill:url(#linearGradient840);fill-opacity:1;fill-rule:evenodd;stroke:none;stroke-width:1px;stroke-linecap:butt;stroke-linejoin:miter;stroke-opacity:1" />
      <path
         d="m 416.57143,496.798 -4,7 -4,0 -21,0 0,-1 21,0 3,0 z"
         id="path4168"
         style="fill:#ffffff;fill-opacity:0.235294;fill-rule:evenodd"
         inkscape:connector-curvature="0"
         sodipodi:nodetypes="cccccccc" />
      <path
         sodipodi:nodetypes="cccccc"
         d="m 387.57143,501.798 0,1 24,0 5,-6 -6,5 z"
         id="path4228"
         style="fill:#000000;fill-opacity:0.23529412;fill-rule:evenodd"
         inkscape:connector-curvature="0" />
      <path
         d="m 387.57143,540.7981 0,1 1,0 56,0 1,0 0,-1 -1,0 -56,0 -1,0 z"
         id="path4151-2"
         style="fill-opacity:0.235294"
         inkscape:connector-curvature="0" />
      <rect
         y="493.798"
         x="390.57144"
         height="3.9999897"
         width="17.999998"
         id="rect4184"
         style="fill:#000000;fill-opacity:0.23529412;stroke:none" />
      <rect
         style="fill:#ffffff;fill-opacity:1;stroke:none"
         id="rect4186"
         width="16.000004"
         height="1.9999911"
         x="391.57144"
         y="494.798" />
      <path
         sodipodi:nodetypes="ccccc"
         inkscape:connector-curvature="0"
         id="rect4190"
         d="m 391.57142,494.798 6.00001,0 0,2 -6.00001,0 z"
         style="fill:#17c4fc;fill-opacity:1;stroke:none" />
    </g>
    <g
       transform="matrix(0.99317,0,0,0.97839,447.59473,504.36663)"
       id="g25">
      <g
         style="fill-rule:evenodd"
         id="g21">
        <path
           style="opacity:0.2;fill:url(#b)"
           inkscape:connector-curvature="0"
           d="m -24.775,5.723 0.07,7.128 -1,-1.017 -5.218,4.057 -0.26,3.668 -5.03,2.238 5.03,4.916 v 4.152 l 5.03,5.05 15.709,-1.603 c 0.487,-0.085 0.946,-0.297 1.363,-0.603 l -5.54,-8.686 -1.463,-15.683 -3.693,-4.088 z"
           id="path17" />
        <path
           style="opacity:0.2;fill:url(#linearGradient60)"
           inkscape:connector-curvature="0"
           d="m -8.02,6.618 -6.81,8.428 6.509,19.542 c 1.063,-0.939 2.311,-3.634 2.311,-5.304 l 3.02,-17.902 z"
           id="path19" />
      </g>
      <path
         style="color:#000000;fill:#ffffff"
         inkscape:connector-curvature="0"
         d="m 12.339,1033.36 -2.833,0.265 v 10.94 l 2.802,-0.382 v -4.676 l 3.735,5.176 2.926,-0.882 -3.829,-4.97 3.86,-4.705 -2.988,-0.647 -3.704,4.705 z m -6.381,2.676 c -0.032,0 -0.07,0.017 -0.093,0.03 l -1.089,1.059 c -0.046,0.046 -0.065,0.123 -0.031,0.177 l 1.276,2 c -0.229,0.364 -0.398,0.762 -0.529,1.176 l -2.366,0.471 c -0.066,0.017 -0.124,0.054 -0.124,0.118 v 1.47 c 0,0.062 0.061,0.131 0.124,0.147 l 2.303,0.529 c 0.123,0.479 0.309,0.935 0.56,1.353 l -1.339,1.912 c -0.037,0.054 -0.018,0.131 0.031,0.177 l 1.09,1.029 c 0.046,0.042 0.13,0.064 0.187,0.03 l 2.086,-1.206 c 0.41,0.224 0.84,0.41 1.307,0.529 l 0.498,2.206 c 0.014,0.064 0.057,0.118 0.124,0.118 h 1.556 c 0.066,0 0.14,-0.057 0.156,-0.118 l 0.56,-2.206 c 0.482,-0.123 0.95,-0.325 1.37,-0.559 l 2.054,1.294 c 0.057,0.034 0.139,0.017 0.187,-0.03 l 1.089,-1.029 c 0.047,-0.046 0.065,-0.123 0.031,-0.176 l -0.747,-1.176 -0.249,0.088 c -0.036,0.017 -0.073,0 -0.093,-0.03 0,0 -0.471,-0.674 -1.089,-1.529 -0.74,1.368 -2.247,2.294 -3.984,2.294 -2.469,0 -4.482,-1.873 -4.482,-4.206 0,-1.716 1.091,-3.191 2.646,-3.852 v -1.088 c -0.283,0.094 -0.549,0.19 -0.809,0.324 0,0 -0.03,0 -0.031,0 l -2.086,-1.294 c -0.028,-0.017 -0.062,-0.032 -0.093,-0.029"
         transform="matrix(1.76438,0,0,1.79103,-41.547,-1845.53)"
         id="path23" />
    </g>
  </g>
</svg>
