<?xml version="1.0" encoding="UTF-8" standalone="no"?>
<!-- Created with Inkscape (http://www.inkscape.org/) -->

<svg
   xmlns:dc="http://purl.org/dc/elements/1.1/"
   xmlns:cc="http://creativecommons.org/ns#"
   xmlns:rdf="http://www.w3.org/1999/02/22-rdf-syntax-ns#"
   xmlns:svg="http://www.w3.org/2000/svg"
   xmlns="http://www.w3.org/2000/svg"
   xmlns:xlink="http://www.w3.org/1999/xlink"
   xmlns:sodipodi="http://sodipodi.sourceforge.net/DTD/sodipodi-0.dtd"
   xmlns:inkscape="http://www.inkscape.org/namespaces/inkscape"
   version="1.0"
   width="128"
   height="128"
   viewBox="100.873 -104.477 263.043 263.042"
   id="Livello_1"
   xml:space="preserve"
   style="overflow:visible"
   sodipodi:docname="k3b.svg"
   inkscape:version="0.92.2pre0 650254f, 2017-08-06"><metadata
     id="metadata375"><rdf:RDF><cc:Work
         rdf:about=""><dc:format>image/svg+xml</dc:format><dc:type
           rdf:resource="http://purl.org/dc/dcmitype/StillImage" /><dc:title></dc:title></cc:Work></rdf:RDF></metadata><sodipodi:namedview
     pagecolor="#ffffff"
     bordercolor="#666666"
     borderopacity="1"
     objecttolerance="10"
     gridtolerance="10"
     guidetolerance="10"
     inkscape:pageopacity="0"
     inkscape:pageshadow="2"
     inkscape:window-width="1920"
     inkscape:window-height="1021"
     id="namedview373"
     showgrid="false"
     inkscape:zoom="1.84375"
     inkscape:cx="-29.830508"
     inkscape:cy="64"
     inkscape:window-x="0"
     inkscape:window-y="26"
     inkscape:window-maximized="1"
     inkscape:current-layer="Livello_1" /><defs
     id="defs82"><radialGradient
       cx="232.5"
       cy="27.3013"
       r="120"
       id="XMLID_11_"
       gradientUnits="userSpaceOnUse"><stop
         id="stop11"
         style="stop-color:#2c2c41;stop-opacity:1"
         offset="0" /><stop
         id="stop2806"
         style="stop-color:#b4afb4;stop-opacity:1"
         offset="0.39880952" /><stop
         id="stop2804"
         style="stop-color:#ffffff;stop-opacity:1"
         offset="0.5" /><stop
         id="stop2808"
         style="stop-color:#a59fa5;stop-opacity:1"
         offset="0.75" /><stop
         id="stop13"
         style="stop-color:#413c51;stop-opacity:1"
         offset="1" /></radialGradient><linearGradient
       x1="249.4619"
       y1="44.263199"
       x2="215.5367"
       y2="10.3379"
       id="XMLID_15_"
       xlink:href="#XMLID_16_"
       gradientUnits="userSpaceOnUse"
       spreadMethod="pad"><stop
         id="stop38"
         style="stop-color:#ffffff;stop-opacity:0"
         offset="0.30000001" /><stop
         id="stop40"
         style="stop-color:#ffffff;stop-opacity:1"
         offset="0.49700001" /><stop
         id="stop42"
         style="stop-color:#ffffff;stop-opacity:0"
         offset="0.69999999" /></linearGradient><clipPath
       id="XMLID_17_"><use
         id="use67"
         x="0"
         y="0"
         width="263.043"
         height="263.04199"
         xlink:href="#XMLID_9_" /></clipPath><linearGradient
       x1="263.14261"
       y1="53.012199"
       x2="201.8575"
       y2="1.5880001"
       id="XMLID_16_"
       gradientUnits="userSpaceOnUse"><stop
         id="stop51"
         style="stop-color:#ffffff;stop-opacity:0"
         offset="0.30000001" /><stop
         id="stop53"
         style="stop-color:#ffffff;stop-opacity:1"
         offset="0.49700001" /><stop
         id="stop55"
         style="stop-color:#ffffff;stop-opacity:0"
         offset="0.69999999" /></linearGradient><linearGradient
       id="linearGradient4769"><stop
         id="stop4771"
         style="stop-color:#860000;stop-opacity:0"
         offset="0" /><stop
         id="stop4779"
         style="stop-color:#fb0000;stop-opacity:0"
         offset="0.29411766" /><stop
         id="stop4777"
         style="stop-color:#ff0000;stop-opacity:0.49803922"
         offset="0.5" /><stop
         id="stop4781"
         style="stop-color:#700000;stop-opacity:0"
         offset="0.53921568" /><stop
         id="stop4773"
         style="stop-color:#860000;stop-opacity:0"
         offset="1" /></linearGradient><linearGradient
       id="linearGradient4757"><stop
         id="stop4759"
         style="stop-color:#780000;stop-opacity:1"
         offset="0" /><stop
         id="stop4761"
         style="stop-color:#db0000;stop-opacity:1"
         offset="0.58318001" /><stop
         id="stop4763"
         style="stop-color:#7b0000;stop-opacity:1"
         offset="1" /></linearGradient><pattern
       patternTransform="matrix(-0.02017619,0.08608706,-0.14752298,-0.03457492,119.16596,-71.789597)"
       id="pattern5042"
       xlink:href="#pattern5732" /><linearGradient
       id="linearGradient5030"><stop
         id="stop5032"
         style="stop-color:#f93535;stop-opacity:1"
         offset="0" /><stop
         id="stop5034"
         style="stop-color:#860404;stop-opacity:0"
         offset="1" /></linearGradient><linearGradient
       id="linearGradient5022"><stop
         id="stop5024"
         style="stop-color:#000000;stop-opacity:1"
         offset="0" /><stop
         id="stop5026"
         style="stop-color:#e50000;stop-opacity:0"
         offset="1" /></linearGradient><linearGradient
       id="linearGradient4262"><stop
         id="stop4264"
         style="stop-color:#000000;stop-opacity:1"
         offset="0" /><stop
         id="stop4266"
         style="stop-color:#e50000;stop-opacity:0.21925133"
         offset="1" /></linearGradient><pattern
       patternTransform="matrix(-0.02015179,0.04584321,-0.14734453,-0.01841189,119.28576,27.191397)"
       id="pattern3252"
       xlink:href="#pattern5732" /><pattern
       patternTransform="matrix(0.35020136,0,0,0.13721669,3.8507595,0.12619004)"
       id="pattern3203"
       xlink:href="#sand_bitmap" /><pattern
       patternTransform="matrix(0.1093743,0.06873583,-0.10936291,0.17402119,3.8507595,0.12619004)"
       id="pattern3201"
       xlink:href="#pattern5594" /><pattern
       patternTransform="matrix(-0.02015179,0.08598292,-0.14734453,-0.0345331,119.28576,-71.828795)"
       id="pattern5732"
       xlink:href="#sand_bitmap" /><linearGradient
       id="linearGradient5696"><stop
         id="stop5698"
         style="stop-color:#ffe4e4;stop-opacity:1"
         offset="0" /><stop
         id="stop5700"
         style="stop-color:#ffe4e4;stop-opacity:0"
         offset="1" /></linearGradient><pattern
       patternTransform="matrix(0.109242,0.06865269,-0.10923062,0.17381069,0,0)"
       id="pattern5594"
       xlink:href="#sand_bitmap" /><pattern
       patternTransform="scale(0.34977774,0.13705071)"
       patternUnits="userSpaceOnUse"
       width="256"
       height="256"
       id="sand_bitmap"
       inkscape:stockid="Sand (bitmap)"><!-- Seamless texture provided by FreeSeamlessTextures.com --><!-- License: creative commons attribution --></pattern><linearGradient
       id="linearGradient4104"><stop
         id="stop4106"
         style="stop-color:#760000;stop-opacity:1"
         offset="0" /><stop
         id="stop4108"
         style="stop-color:#a90000;stop-opacity:1"
         offset="0.15497573" /><stop
         id="stop4110"
         style="stop-color:#6d0000;stop-opacity:1"
         offset="0.24605703" /><stop
         id="stop4112"
         style="stop-color:#3e0000;stop-opacity:1"
         offset="0.4387573" /><stop
         id="stop4114"
         style="stop-color:#ed0000;stop-opacity:1"
         offset="0.84059465" /><stop
         id="stop4116"
         style="stop-color:#960000;stop-opacity:1"
         offset="1" /></linearGradient><linearGradient
       id="linearGradient3929"><stop
         id="stop3931"
         style="stop-color:#780000;stop-opacity:1"
         offset="0" /><stop
         id="stop3933"
         style="stop-color:#a50000;stop-opacity:1"
         offset="0.66525525" /><stop
         id="stop3935"
         style="stop-color:#7b0000;stop-opacity:1"
         offset="1" /></linearGradient><linearGradient
       id="linearGradient3882"><stop
         id="stop3884"
         style="stop-color:#760000;stop-opacity:1"
         offset="0" /><stop
         id="stop3886"
         style="stop-color:#a90000;stop-opacity:1"
         offset="0.15497573" /><stop
         id="stop3888"
         style="stop-color:#6d0000;stop-opacity:1"
         offset="0.24605703" /><stop
         id="stop3890"
         style="stop-color:#3e0000;stop-opacity:1"
         offset="0.50322878" /><stop
         id="stop3892"
         style="stop-color:#ed0000;stop-opacity:1"
         offset="0.84059465" /><stop
         id="stop3894"
         style="stop-color:#960000;stop-opacity:1"
         offset="1" /></linearGradient><linearGradient
       id="linearGradient4421"><stop
         id="stop4423"
         style="stop-color:#760000;stop-opacity:1"
         offset="0" /><stop
         id="stop4425"
         style="stop-color:#a90000;stop-opacity:1"
         offset="0.15497573" /><stop
         id="stop4427"
         style="stop-color:#f30000;stop-opacity:1"
         offset="0.30995145" /><stop
         id="stop4429"
         style="stop-color:#3e0000;stop-opacity:1"
         offset="0.47884503" /><stop
         id="stop4431"
         style="stop-color:#ed0000;stop-opacity:1"
         offset="0.70961833" /><stop
         id="stop4433"
         style="stop-color:#960000;stop-opacity:1"
         offset="1" /></linearGradient><linearGradient
       id="linearGradient4413"><stop
         id="stop4415"
         style="stop-color:#780000;stop-opacity:1"
         offset="0" /><stop
         id="stop4417"
         style="stop-color:#a50000;stop-opacity:1"
         offset="0.66783732" /><stop
         id="stop4419"
         style="stop-color:#7b0000;stop-opacity:1"
         offset="1" /></linearGradient><linearGradient
       id="linearGradient4376"><stop
         id="stop4378"
         style="stop-color:#2e2a25;stop-opacity:1"
         offset="0" /><stop
         id="stop4380"
         style="stop-color:#2e2a25;stop-opacity:0"
         offset="1" /></linearGradient><linearGradient
       id="linearGradient4368"><stop
         id="stop4370"
         style="stop-color:#2e2a25;stop-opacity:1"
         offset="0" /><stop
         id="stop4372"
         style="stop-color:#2e2a25;stop-opacity:0"
         offset="1" /></linearGradient><linearGradient
       id="linearGradient4344"><stop
         id="stop4346"
         style="stop-color:#fffbff;stop-opacity:0"
         offset="0" /><stop
         id="stop4352"
         style="stop-color:#cd7ddf;stop-opacity:1"
         offset="0.18586229" /><stop
         id="stop4348"
         style="stop-color:#9b00bf;stop-opacity:1"
         offset="1" /></linearGradient><linearGradient
       id="linearGradient4250"><stop
         id="stop4252"
         style="stop-color:#00e0e0;stop-opacity:1"
         offset="0" /><stop
         id="stop4258"
         style="stop-color:#e0d800;stop-opacity:1"
         offset="0.5" /><stop
         id="stop4260"
         style="stop-color:#00dcd1;stop-opacity:1"
         offset="0.75" /><stop
         id="stop4254"
         style="stop-color:#e000b4;stop-opacity:1"
         offset="1" /></linearGradient><linearGradient
       id="linearGradient4240"><stop
         id="stop4242"
         style="stop-color:#ee00dd;stop-opacity:1"
         offset="0" /><stop
         id="stop4248"
         style="stop-color:#aaee00;stop-opacity:1"
         offset="0.5" /><stop
         id="stop4244"
         style="stop-color:#8d0083;stop-opacity:1"
         offset="1" /></linearGradient><radialGradient
       cx="232.5"
       cy="27.3013"
       r="120"
       id="radialGradient4141"
       gradientUnits="userSpaceOnUse"><stop
         id="stop4143"
         style="stop-color:#e3dfdc;stop-opacity:1"
         offset="0" /><stop
         id="stop4153"
         style="stop-color:#cec9c3;stop-opacity:1"
         offset="0.39769515" /><stop
         id="stop4356"
         style="stop-color:#d4cfcb;stop-opacity:1"
         offset="0.42327136" /><stop
         id="stop4354"
         style="stop-color:#e6e4e1;stop-opacity:1"
         offset="0.44884759" /><stop
         id="stop4145"
         style="stop-color:#ffffff;stop-opacity:1"
         offset="0.5" /><stop
         id="stop4147"
         style="stop-color:#d1c7c7;stop-opacity:1"
         offset="0.6589213" /><stop
         id="stop4149"
         style="stop-color:#d8d0d0;stop-opacity:1"
         offset="1" /></radialGradient><linearGradient
       id="linearGradient4125"><stop
         id="stop4127"
         style="stop-color:#760000;stop-opacity:1"
         offset="0" /><stop
         id="stop4129"
         style="stop-color:#a90000;stop-opacity:1"
         offset="0.15497573" /><stop
         id="stop4131"
         style="stop-color:#6d0000;stop-opacity:1"
         offset="0.30995145" /><stop
         id="stop4133"
         style="stop-color:#3e0000;stop-opacity:1"
         offset="0.47884503" /><stop
         id="stop4135"
         style="stop-color:#ed0000;stop-opacity:1"
         offset="0.70961833" /><stop
         id="stop4137"
         style="stop-color:#960000;stop-opacity:1"
         offset="1" /></linearGradient><linearGradient
       id="linearGradient4107"><stop
         id="stop4109"
         style="stop-color:#340000;stop-opacity:1"
         offset="0" /><stop
         id="stop4115"
         style="stop-color:#9b0000;stop-opacity:0.49803922"
         offset="0.5" /><stop
         id="stop4111"
         style="stop-color:#4f0000;stop-opacity:0"
         offset="1" /></linearGradient><linearGradient
       id="linearGradient3910"><stop
         id="stop3912"
         style="stop-color:#760000;stop-opacity:1"
         offset="0" /><stop
         id="stop3922"
         style="stop-color:#890000;stop-opacity:1"
         offset="0.15497573" /><stop
         id="stop3920"
         style="stop-color:#6d0000;stop-opacity:1"
         offset="0.30995145" /><stop
         id="stop3914"
         style="stop-color:#3e0000;stop-opacity:1"
         offset="0.47884503" /><stop
         id="stop3918"
         style="stop-color:#ff1b1b;stop-opacity:1"
         offset="0.84059465" /><stop
         id="stop3916"
         style="stop-color:#960000;stop-opacity:1"
         offset="1" /></linearGradient><linearGradient
       id="linearGradient3898"><stop
         id="stop3900"
         style="stop-color:#780000;stop-opacity:1"
         offset="0" /><stop
         id="stop3908"
         style="stop-color:#b20000;stop-opacity:1"
         offset="0.5" /><stop
         id="stop3902"
         style="stop-color:#7b0000;stop-opacity:1"
         offset="1" /></linearGradient><linearGradient
       id="linearGradient3796"><stop
         id="stop3798"
         style="stop-color:#ffffff;stop-opacity:1"
         offset="0" /><stop
         id="stop3800"
         style="stop-color:#ffffff;stop-opacity:0.66071427"
         offset="1" /></linearGradient><linearGradient
       id="linearGradient3667"><stop
         id="stop3669"
         style="stop-color:#473a56;stop-opacity:1"
         offset="0" /><stop
         id="stop3675"
         style="stop-color:#c4c4c4;stop-opacity:1"
         offset="0.5" /><stop
         id="stop3671"
         style="stop-color:#282131;stop-opacity:1"
         offset="1" /></linearGradient><linearGradient
       id="linearGradient2797"><stop
         id="stop2799"
         style="stop-color:#ffffff;stop-opacity:1"
         offset="0" /><stop
         id="stop2801"
         style="stop-color:#ffffff;stop-opacity:0"
         offset="1" /></linearGradient><linearGradient
       x1="249.4619"
       y1="44.263199"
       x2="215.5367"
       y2="10.3379"
       id="linearGradient2839"
       xlink:href="#XMLID_15_"
       gradientUnits="userSpaceOnUse"
       gradientTransform="matrix(0.8584488,0,0,0.8586718,34.834253,16.097934)" /><linearGradient
       x1="263.14261"
       y1="53.012199"
       x2="201.8575"
       y2="1.5880001"
       id="linearGradient2857"
       xlink:href="#XMLID_16_"
       gradientUnits="userSpaceOnUse"
       gradientTransform="matrix(0.8584488,0,0,0.8586718,34.834253,16.097934)" /><linearGradient
       x1="137.81563"
       y1="-108.63532"
       x2="314.59543"
       y2="68.14447"
       id="linearGradient2869"
       xlink:href="#radialGradient4141"
       gradientUnits="userSpaceOnUse"
       gradientTransform="matrix(0.8358336,0,0,0.8358336,40.435012,51.064813)" /><linearGradient
       x1="356.38586"
       y1="27"
       x2="232"
       y2="-65.195312"
       id="linearGradient2832"
       xlink:href="#linearGradient2797"
       gradientUnits="userSpaceOnUse" /><linearGradient
       x1="109.96723"
       y1="88.015862"
       x2="232"
       y2="88.015862"
       id="linearGradient3231"
       xlink:href="#linearGradient2797"
       gradientUnits="userSpaceOnUse" /><filter
       id="filter4199"><feGaussianBlur
         id="feGaussianBlur4201"
         stdDeviation="2.4476426"
         inkscape:collect="always" /></filter><filter
       id="filter5172"><feGaussianBlur
         id="feGaussianBlur5174"
         stdDeviation="2.440645"
         inkscape:collect="always" /></filter><linearGradient
       x1="109.96723"
       y1="88.015862"
       x2="232"
       y2="88.015862"
       id="linearGradient2889"
       xlink:href="#linearGradient2797"
       gradientUnits="userSpaceOnUse" /><linearGradient
       x1="356.38586"
       y1="27"
       x2="232"
       y2="-65.195312"
       id="linearGradient2891"
       xlink:href="#linearGradient2797"
       gradientUnits="userSpaceOnUse" /><linearGradient
       x1="142.32056"
       y1="50.525726"
       x2="320.60156"
       y2="-18.056568"
       id="linearGradient3673"
       xlink:href="#XMLID_11_"
       gradientUnits="userSpaceOnUse" /><filter
       height="1.2607034"
       y="-0.13035174"
       width="1.1631068"
       x="-0.0815534"
       id="filter3732"><feGaussianBlur
         id="feGaussianBlur3734"
         stdDeviation="2.3427203"
         inkscape:collect="always" /></filter><filter
       id="filter3748"><feGaussianBlur
         id="feGaussianBlur3750"
         stdDeviation="1.4159298"
         inkscape:collect="always" /></filter><radialGradient
       cx="-115.06501"
       cy="27.910955"
       r="102.91172"
       fx="-79.102097"
       fy="89.561661"
       id="radialGradient3857"
       xlink:href="#linearGradient3796"
       gradientUnits="userSpaceOnUse"
       gradientTransform="translate(0,2.5765196e-6)" /><mask
       id="mask3853"><path
         d="M -115.09711,-75.000759 C -171.92926,-75.000759 -217.97673,-28.889069 -217.97673,27.94307 C -217.97673,84.775204 -171.92926,130.82267 -115.09711,130.82267 C -58.264961,130.82267 -12.153282,84.775204 -12.153282,27.94307 C -12.153282,-28.889069 -58.264961,-75.000759 -115.09711,-75.000759 L -115.09711,-75.000759 z M -115.09711,-6.4143524 C -96.144201,-6.4143524 -80.739681,8.9901586 -80.739681,27.94307 C -80.739681,46.895981 -96.144201,62.236274 -115.09711,62.236274 C -134.05002,62.236274 -149.39032,46.895981 -149.39032,27.94307 C -149.39032,8.9901586 -134.05002,-6.4143524 -115.09711,-6.4143524 z"
         id="path3855"
         style="fill:url(#radialGradient3857);fill-opacity:1;stroke:none" /></mask><linearGradient
       x1="-99.982323"
       y1="119.21773"
       x2="-34.954964"
       y2="-84.759125"
       id="linearGradient3904"
       xlink:href="#linearGradient3910"
       gradientUnits="userSpaceOnUse"
       gradientTransform="matrix(1.1783679,0,0,1.1783679,268.98117,-4.2375142)" /><linearGradient
       x1="-133.80838"
       y1="20.749088"
       x2="-33.805447"
       y2="-11.969338"
       id="linearGradient3906"
       xlink:href="#linearGradient3898"
       gradientUnits="userSpaceOnUse"
       gradientTransform="matrix(1.1783679,0,0,1.1783679,268.98117,-4.2375142)" /><linearGradient
       x1="-88.870407"
       y1="112.42711"
       x2="2.5472698"
       y2="-91.455956"
       id="linearGradient3928"
       xlink:href="#linearGradient3910"
       gradientUnits="userSpaceOnUse"
       gradientTransform="matrix(1.0849324,0,0,1.0849324,361.45075,11.563871)" /><linearGradient
       x1="-119.60982"
       y1="-11.969338"
       x2="11.063297"
       y2="-84.82634"
       id="linearGradient3930"
       xlink:href="#linearGradient3898"
       gradientUnits="userSpaceOnUse"
       gradientTransform="matrix(1.0849324,0,0,1.0849324,361.45075,11.563871)" /><linearGradient
       x1="-88.870407"
       y1="112.42711"
       x2="-8.1832876"
       y2="-413.00314"
       id="linearGradient3936"
       xlink:href="#linearGradient3910"
       gradientUnits="userSpaceOnUse"
       gradientTransform="matrix(-0.9363006,0,0,0.9363006,113.70173,19.299677)" /><linearGradient
       x1="-119.60982"
       y1="-11.969338"
       x2="40.818871"
       y2="-127.74677"
       id="linearGradient3938"
       xlink:href="#linearGradient3898"
       gradientUnits="userSpaceOnUse"
       gradientTransform="matrix(-0.9363006,0,0,0.9363006,113.70173,19.299677)" /><linearGradient
       x1="-4.1421361"
       y1="124.5"
       x2="84.972176"
       y2="86.638191"
       id="linearGradient3948"
       xlink:href="#linearGradient3910"
       gradientUnits="userSpaceOnUse"
       gradientTransform="matrix(2.0575123,0,0,2.0575123,104.84592,-104.47785)" /><linearGradient
       x1="30.330715"
       y1="70.333397"
       x2="62.329399"
       y2="122.63345"
       id="linearGradient3960"
       xlink:href="#linearGradient4125"
       gradientUnits="userSpaceOnUse"
       gradientTransform="matrix(1.7916547,0,0,1.7916547,119.16596,-71.789597)" /><linearGradient
       x1="37.460236"
       y1="96.970772"
       x2="50.212612"
       y2="143.09514"
       id="linearGradient3968"
       xlink:href="#linearGradient3898"
       gradientUnits="userSpaceOnUse"
       gradientTransform="matrix(1.7916547,0,0,1.7916547,119.16596,-71.789597)" /><filter
       id="filter4026"><feGaussianBlur
         id="feGaussianBlur4028"
         stdDeviation="4.4564281"
         inkscape:collect="always" /></filter><clipPath
       id="clipPath4030"><path
         d="M -7.3062364,-63.632669 C -64.138387,-63.632669 -110.18586,-17.520979 -110.18586,39.31116 C -110.18586,96.143294 -64.138387,142.19076 -7.3062364,142.19076 C 49.525913,142.19076 95.637593,96.143294 95.637593,39.31116 C 95.637593,-17.520979 49.525913,-63.632669 -7.3062364,-63.632669 L -7.3062364,-63.632669 z M -7.3062364,4.9537376 C 11.646673,4.9537376 27.051193,20.358249 27.051193,39.31116 C 27.051193,58.264071 11.646673,73.604364 -7.3062364,73.604364 C -26.259147,73.604364 -41.599447,58.264071 -41.599447,39.31116 C -41.599447,20.358249 -26.259147,4.9537376 -7.3062364,4.9537376 L -7.3062364,4.9537376 z"
         id="path4032"
         style="fill:url(#radialGradient4034);fill-opacity:1;stroke:none" /></clipPath><radialGradient
       cx="-115.06501"
       cy="27.910955"
       r="102.91172"
       fx="-79.102097"
       fy="89.561661"
       id="radialGradient4034"
       xlink:href="#linearGradient3796"
       gradientUnits="userSpaceOnUse"
       gradientTransform="translate(107.79087,11.368093)" /><linearGradient
       x1="-88.870407"
       y1="112.42711"
       x2="-9.0275393"
       y2="-76.02877"
       id="linearGradient4036"
       xlink:href="#linearGradient3910"
       gradientUnits="userSpaceOnUse"
       gradientTransform="matrix(1.1769425,0,0,1.1769425,52.654043,-4.3584257)" /><linearGradient
       x1="-133.80838"
       y1="20.749088"
       x2="-33.805447"
       y2="-11.969338"
       id="linearGradient4038"
       xlink:href="#linearGradient3898"
       gradientUnits="userSpaceOnUse"
       gradientTransform="matrix(1.1769425,0,0,1.1769425,52.654043,-4.3584257)" /><linearGradient
       x1="30.330715"
       y1="70.333397"
       x2="59.769367"
       y2="120.3334"
       id="linearGradient4040"
       xlink:href="#linearGradient3910"
       gradientUnits="userSpaceOnUse"
       gradientTransform="matrix(1.8212357,0,0,1.8212357,-102.19234,-75.408009)" /><linearGradient
       x1="31.803383"
       y1="82.475082"
       x2="42.434437"
       y2="116.22508"
       id="linearGradient4042"
       xlink:href="#linearGradient3898"
       gradientUnits="userSpaceOnUse"
       gradientTransform="matrix(1.8212357,0,0,1.8212357,-102.19234,-75.408009)" /><filter
       id="filter4071"><feGaussianBlur
         id="feGaussianBlur4073"
         stdDeviation="2.5565572"
         inkscape:collect="always" /></filter><clipPath
       id="clipPath4075"><path
         d="M 183.71613,-21.634369 L 183.71613,105.5202 L 294.88005,105.5202 L 294.88005,-21.634369 L 183.71613,-21.634369 L 183.71613,-21.634369 z M 232.58716,25.631169 C 240.11094,25.631169 246.20169,31.721919 246.20169,39.245699 C 246.20169,46.769479 240.11094,52.860229 232.58716,52.860229 C 225.06338,52.860229 218.90841,46.769479 218.90841,39.245699 C 218.90841,31.721919 225.06338,25.631169 232.58716,25.631169 L 232.58716,25.631169 z"
         id="path4077"
         style="opacity:0.5;fill:#ff7e7e;fill-opacity:0.45454544;stroke:none" /></clipPath><linearGradient
       x1="-119.60982"
       y1="-11.969338"
       x2="40.818871"
       y2="-127.74677"
       id="linearGradient4094"
       xlink:href="#linearGradient3898"
       gradientUnits="userSpaceOnUse"
       gradientTransform="matrix(-0.9374346,0,0,0.9374346,115.63268,19.449239)" /><linearGradient
       x1="-88.870407"
       y1="112.42711"
       x2="-8.1832876"
       y2="-413.00314"
       id="linearGradient4097"
       xlink:href="#linearGradient3910"
       gradientUnits="userSpaceOnUse"
       gradientTransform="matrix(-0.9374346,0,0,0.9374346,115.63268,5.0466548)" /><radialGradient
       cx="62.932503"
       cy="124.28769"
       r="26.870058"
       fx="62.780544"
       fy="139.2155"
       id="radialGradient4113"
       xlink:href="#linearGradient4107"
       gradientUnits="userSpaceOnUse"
       gradientTransform="matrix(1,0,0,0.125,0,108.75173)" /><filter
       height="1.576699"
       y="-0.28834951"
       width="1.0720874"
       x="-0.036043689"
       id="filter4121"><feGaussianBlur
         id="feGaussianBlur4123"
         stdDeviation="0.80708002"
         inkscape:collect="always" /></filter><filter
       id="filter4155"><feGaussianBlur
         id="feGaussianBlur4157"
         stdDeviation="0.92807762"
         inkscape:collect="always" /></filter><filter
       id="filter4167"><feGaussianBlur
         id="feGaussianBlur4169"
         stdDeviation="0.27653538"
         inkscape:collect="always" /></filter><filter
       id="filter4171"><feGaussianBlur
         id="feGaussianBlur4173"
         stdDeviation="0.84344359"
         inkscape:collect="always" /></filter><filter
       id="filter4236"><feGaussianBlur
         id="feGaussianBlur4238"
         stdDeviation="0.47892905"
         inkscape:collect="always" /></filter><linearGradient
       x1="-127.20025"
       y1="58.165016"
       x2="-122.62708"
       y2="53.249985"
       id="linearGradient4310"
       xlink:href="#linearGradient4250"
       gradientUnits="userSpaceOnUse" /><linearGradient
       x1="-123.7238"
       y1="54.820698"
       x2="-120.18929"
       y2="49.7271"
       id="linearGradient4320"
       xlink:href="#linearGradient4240"
       gradientUnits="userSpaceOnUse" /><linearGradient
       x1="-109.58116"
       y1="39.62849"
       x2="-121.22195"
       y2="50.035378"
       id="linearGradient4324"
       xlink:href="#linearGradient4250"
       gradientUnits="userSpaceOnUse" /><filter
       height="1.5626231"
       y="-0.2813116"
       width="1.2787694"
       x="-0.13938469"
       id="filter4330"><feGaussianBlur
         id="feGaussianBlur4332"
         stdDeviation="3.4803895"
         inkscape:collect="always" /></filter><filter
       height="1.289415"
       y="-0.14470749"
       width="1.3177308"
       x="-0.15886542"
       id="filter4334"><feGaussianBlur
         id="feGaussianBlur4336"
         stdDeviation="3.47836"
         inkscape:collect="always" /></filter><filter
       height="1.2014732"
       y="-0.10073658"
       width="1.1734387"
       x="-0.086719342"
       id="filter4338"><feGaussianBlur
         id="feGaussianBlur4340"
         stdDeviation="2.1318222"
         inkscape:collect="always" /></filter><linearGradient
       x1="-120.76731"
       y1="52.434853"
       x2="-143.16258"
       y2="38.633732"
       id="linearGradient4350"
       xlink:href="#linearGradient4344"
       gradientUnits="userSpaceOnUse" /><filter
       id="filter4362"><feGaussianBlur
         id="feGaussianBlur4364"
         stdDeviation="0.42008052"
         inkscape:collect="always" /></filter><linearGradient
       x1="-97.35186"
       y1="43.942097"
       x2="-153.63556"
       y2="89.343391"
       id="linearGradient4374"
       xlink:href="#linearGradient4368"
       gradientUnits="userSpaceOnUse" /><linearGradient
       x1="-116.5162"
       y1="70.613655"
       x2="-81.739853"
       y2="15.691672"
       id="linearGradient4382"
       xlink:href="#linearGradient4376"
       gradientUnits="userSpaceOnUse" /><linearGradient
       x1="31.844921"
       y1="95.673882"
       x2="66.888962"
       y2="102.06563"
       id="linearGradient4409"
       xlink:href="#linearGradient4421"
       gradientUnits="userSpaceOnUse"
       gradientTransform="matrix(-2.0575123,0,-0.4357675,2.0575123,385.2094,-103.67413)" /><linearGradient
       x1="38.580067"
       y1="97.219688"
       x2="42.434437"
       y2="116.22508"
       id="linearGradient4411"
       xlink:href="#linearGradient4413"
       gradientUnits="userSpaceOnUse"
       gradientTransform="matrix(-2.0575123,0,-0.4357675,2.0575123,385.2094,-103.67413)" /><linearGradient
       x1="46.42931"
       y1="131.50499"
       x2="57.584446"
       y2="113.40987"
       id="linearGradient4445"
       xlink:href="#linearGradient4125"
       gradientUnits="userSpaceOnUse"
       gradientTransform="matrix(1.7916547,0,0,1.7916547,119.16596,-71.789597)" /><linearGradient
       x1="52.171223"
       y1="121.68024"
       x2="55.287857"
       y2="115.36047"
       id="linearGradient4453"
       xlink:href="#linearGradient3898"
       gradientUnits="userSpaceOnUse"
       gradientTransform="matrix(1.7916547,0,0,1.7916547,119.16596,-71.789597)" /><linearGradient
       x1="54.778679"
       y1="115.82451"
       x2="58.116283"
       y2="116.42113"
       id="linearGradient4457"
       xlink:href="#linearGradient3898"
       gradientUnits="userSpaceOnUse"
       gradientTransform="matrix(1.7916547,0,0,1.7916547,119.16596,-71.789597)" /><linearGradient
       x1="78.722115"
       y1="93.350082"
       x2="42.434437"
       y2="116.22508"
       id="linearGradient4463"
       xlink:href="#linearGradient3898"
       gradientUnits="userSpaceOnUse"
       gradientTransform="matrix(2.0550234,0,0,2.0550234,-111.28267,-104.4775)" /><linearGradient
       x1="64.909615"
       y1="107.39815"
       x2="59.269367"
       y2="123.62127"
       id="linearGradient4465"
       xlink:href="#linearGradient3910"
       gradientUnits="userSpaceOnUse"
       gradientTransform="matrix(2.0550234,0,0,2.0550234,-111.28267,-104.4775)" /><linearGradient
       x1="59.597115"
       y1="107.33565"
       x2="59.269367"
       y2="123.62127"
       id="linearGradient4469"
       xlink:href="#linearGradient3910"
       gradientUnits="userSpaceOnUse"
       gradientTransform="matrix(2.0550234,0,0,2.0550234,-111.28267,-104.4775)" /><linearGradient
       x1="-89.108467"
       y1="60.087955"
       x2="-65.971367"
       y2="101.08903"
       id="linearGradient3870"
       xlink:href="#linearGradient4757"
       gradientUnits="userSpaceOnUse"
       gradientTransform="matrix(2.0575123,0,0,2.0575123,451.34722,-104.07563)" /><linearGradient
       x1="-102.80789"
       y1="-23.584679"
       x2="-74.338577"
       y2="198.14972"
       id="linearGradient3872"
       xlink:href="#linearGradient4104"
       gradientUnits="userSpaceOnUse"
       gradientTransform="matrix(1.0012111,0,0,1.0012111,332.71181,-7.9487692)" /><linearGradient
       x1="80.564606"
       y1="62.356297"
       x2="95.810219"
       y2="60.725452"
       id="linearGradient3947"
       xlink:href="#linearGradient3882"
       gradientUnits="userSpaceOnUse"
       gradientTransform="matrix(2.0575123,0,0,2.0575123,104.84592,-104.47785)" /><linearGradient
       x1="54.380932"
       y1="111.74974"
       x2="94.747276"
       y2="111.74974"
       id="linearGradient3957"
       xlink:href="#linearGradient3898"
       gradientUnits="userSpaceOnUse"
       gradientTransform="matrix(2.0575123,0,0,2.0575123,104.84592,-104.47785)" /><filter
       height="1.1085773"
       y="-0.05428867"
       width="1.3239425"
       x="-0.16197127"
       id="filter4041"><feGaussianBlur
         id="feGaussianBlur4043"
         stdDeviation="2.3903486"
         inkscape:collect="always" /></filter><filter
       id="filter4045"><feGaussianBlur
         id="feGaussianBlur4047"
         stdDeviation="2.3903486"
         inkscape:collect="always" /></filter><filter
       height="1.1819674"
       y="-0.090983689"
       width="1.7749842"
       x="-0.38749215"
       id="filter4049"><feGaussianBlur
         id="feGaussianBlur4051"
         stdDeviation="2.3903486"
         inkscape:collect="always" /></filter><clipPath
       id="clipPath4090"><path
         d="M 476.58306,-63.632669 C 419.75091,-63.632669 373.70344,-17.520979 373.70344,39.31116 C 373.70344,96.143294 419.75091,142.19076 476.58306,142.19076 C 533.41521,142.19076 579.52689,96.143294 579.52689,39.31116 C 579.52689,-17.520979 533.41521,-63.632669 476.58306,-63.632669 L 476.58306,-63.632669 z M 476.58306,4.9537376 C 495.53597,4.9537376 510.94049,20.358249 510.94049,39.31116 C 510.94049,58.264071 495.53597,73.604364 476.58306,73.604364 C 457.63015,73.604364 442.28985,58.264071 442.28985,39.31116 C 442.28985,20.358249 457.63015,4.9537376 476.58306,4.9537376 L 476.58306,4.9537376 z"
         id="path4092"
         style="fill:url(#radialGradient4094);fill-opacity:1;stroke:none" /></clipPath><radialGradient
       cx="-115.06501"
       cy="27.910955"
       r="102.91172"
       fx="-79.102097"
       fy="89.561661"
       id="radialGradient4094"
       xlink:href="#linearGradient3796"
       gradientUnits="userSpaceOnUse"
       gradientTransform="translate(591.68017,11.368093)" /><linearGradient
       x1="80.564606"
       y1="62.356297"
       x2="95.810219"
       y2="60.725452"
       id="linearGradient4098"
       xlink:href="#linearGradient3882"
       gradientUnits="userSpaceOnUse"
       gradientTransform="matrix(2.0550234,0,-0.2392056,2.0550234,367.38238,-94.202391)" /><linearGradient
       x1="-102.80789"
       y1="-23.584679"
       x2="-74.338577"
       y2="198.14972"
       id="linearGradient4100"
       xlink:href="#linearGradient3882"
       gradientUnits="userSpaceOnUse"
       gradientTransform="matrix(1,0,-0.1164003,1,583.75019,2.2099281)" /><linearGradient
       x1="-89.108467"
       y1="60.087955"
       x2="-68.090118"
       y2="91.907761"
       id="linearGradient4102"
       xlink:href="#linearGradient3929"
       gradientUnits="userSpaceOnUse"
       gradientTransform="matrix(2.0550234,0,-0.2392056,2.0550234,713.41777,-93.800658)" /><linearGradient
       x1="50.589046"
       y1="124.43024"
       x2="55.730827"
       y2="105.86047"
       id="linearGradient4133"
       xlink:href="#linearGradient3898"
       gradientUnits="userSpaceOnUse"
       gradientTransform="matrix(-2.0575123,0,-1.5578552,2.0575123,548.84436,-105.73672)" /><linearGradient
       x1="53.210945"
       y1="114.59812"
       x2="58.764412"
       y2="128.75172"
       id="linearGradient4137"
       xlink:href="#linearGradient3898"
       gradientUnits="userSpaceOnUse"
       gradientTransform="matrix(-2.0575123,0,-1.5578552,2.0575123,548.84436,-105.73672)" /><radialGradient
       cx="62.932503"
       cy="124.28769"
       r="26.870058"
       fx="62.780544"
       fy="139.2155"
       id="radialGradient4142"
       xlink:href="#linearGradient4107"
       gradientUnits="userSpaceOnUse"
       gradientTransform="matrix(1,0,0,0.125,0,108.75173)" /><radialGradient
       cx="-66.529434"
       cy="49.375"
       r="25.479332"
       fx="-66.529434"
       fy="49.375"
       id="radialGradient5702"
       xlink:href="#linearGradient5696"
       gradientUnits="userSpaceOnUse"
       gradientTransform="matrix(9.5598195,2.561546,-4.1533217,15.500408,1018.6472,-598.13066)" /><filter
       id="filter5708"><feGaussianBlur
         id="feGaussianBlur5710"
         stdDeviation="0.68629391"
         inkscape:collect="always" /></filter><linearGradient
       x1="-88.870407"
       y1="112.42711"
       x2="2.5472698"
       y2="-91.455956"
       id="linearGradient5830"
       xlink:href="#linearGradient3910"
       gradientUnits="userSpaceOnUse"
       gradientTransform="matrix(1.0849324,0,0,1.0849324,490.77852,119.09482)" /><linearGradient
       x1="-119.60982"
       y1="-11.969338"
       x2="11.063297"
       y2="-84.82634"
       id="linearGradient5832"
       xlink:href="#linearGradient3898"
       gradientUnits="userSpaceOnUse"
       gradientTransform="matrix(1.1222265,0,0,1.0849324,492.221,119.48392)" /><radialGradient
       cx="62.932503"
       cy="124.28769"
       r="26.870058"
       fx="62.780544"
       fy="139.2155"
       id="radialGradient3268"
       xlink:href="#linearGradient4107"
       gradientUnits="userSpaceOnUse"
       gradientTransform="matrix(1,0,0,0.125,0,108.75173)" /><linearGradient
       x1="30.330715"
       y1="70.333397"
       x2="62.329399"
       y2="122.63345"
       id="linearGradient3270"
       xlink:href="#linearGradient4125"
       gradientUnits="userSpaceOnUse"
       gradientTransform="matrix(1.7894874,0,0,0.9540947,119.28576,27.191397)" /><linearGradient
       x1="37.460236"
       y1="96.970772"
       x2="50.212612"
       y2="143.09514"
       id="linearGradient3272"
       xlink:href="#linearGradient3898"
       gradientUnits="userSpaceOnUse"
       gradientTransform="matrix(1.7894874,0,0,0.9540947,119.28576,27.191397)" /><linearGradient
       x1="29.10696"
       y1="99.169647"
       x2="66.888962"
       y2="102.06563"
       id="linearGradient3274"
       xlink:href="#linearGradient4421"
       gradientUnits="userSpaceOnUse"
       gradientTransform="matrix(-2.0550234,0,-0.4352404,1.0956696,385.00738,10.212196)" /><linearGradient
       x1="54.778679"
       y1="115.82451"
       x2="58.116283"
       y2="116.42113"
       id="linearGradient3276"
       xlink:href="#linearGradient3898"
       gradientUnits="userSpaceOnUse"
       gradientTransform="matrix(1.7894874,0,0,0.9540947,119.28576,27.191397)" /><linearGradient
       x1="38.580067"
       y1="97.219688"
       x2="42.434437"
       y2="116.22508"
       id="linearGradient3278"
       xlink:href="#linearGradient4413"
       gradientUnits="userSpaceOnUse"
       gradientTransform="matrix(-2.0550234,0,-0.4352404,1.0956696,385.00738,10.212196)" /><linearGradient
       x1="53.210945"
       y1="114.59812"
       x2="58.764412"
       y2="128.75172"
       id="linearGradient3280"
       xlink:href="#linearGradient3898"
       gradientUnits="userSpaceOnUse"
       gradientTransform="matrix(-2.0550234,0,-1.5559708,1.0956696,548.4444,9.1138246)" /><linearGradient
       x1="46.42931"
       y1="131.50499"
       x2="57.584446"
       y2="113.40987"
       id="linearGradient3282"
       xlink:href="#linearGradient4125"
       gradientUnits="userSpaceOnUse"
       gradientTransform="matrix(1.7894874,0,0,0.9540947,119.28576,27.191397)" /><linearGradient
       x1="52.171223"
       y1="121.68024"
       x2="55.287857"
       y2="115.36047"
       id="linearGradient3284"
       xlink:href="#linearGradient3898"
       gradientUnits="userSpaceOnUse"
       gradientTransform="matrix(1.7894874,0,0,0.9540947,119.28576,27.191397)" /><linearGradient
       x1="50.589046"
       y1="124.43024"
       x2="55.730827"
       y2="105.86047"
       id="linearGradient3286"
       xlink:href="#linearGradient3898"
       gradientUnits="userSpaceOnUse"
       gradientTransform="matrix(-2.0550234,0,-1.5559708,1.0956696,548.4444,9.1138246)" /><radialGradient
       cx="62.932503"
       cy="124.28769"
       r="26.870058"
       fx="62.780544"
       fy="139.2155"
       id="radialGradient3288"
       xlink:href="#linearGradient4107"
       gradientUnits="userSpaceOnUse"
       gradientTransform="matrix(1,0,0,0.125,0,108.75173)" /><linearGradient
       x1="30.330715"
       y1="70.333397"
       x2="62.329399"
       y2="122.63345"
       id="linearGradient3294"
       xlink:href="#linearGradient4125"
       gradientUnits="userSpaceOnUse"
       gradientTransform="matrix(1.7894874,0,-0.5512719,0.5081523,156.28788,80.679797)" /><linearGradient
       x1="55.858967"
       y1="140.85255"
       x2="60.60318"
       y2="109.68265"
       id="linearGradient3302"
       xlink:href="#linearGradient4125"
       gradientUnits="userSpaceOnUse"
       gradientTransform="matrix(1.7894874,0,-0.5512719,0.5081523,156.28788,80.679797)" /><linearGradient
       x1="30.330715"
       y1="70.333397"
       x2="62.329399"
       y2="122.63345"
       id="linearGradient3317"
       xlink:href="#linearGradient4125"
       gradientUnits="userSpaceOnUse"
       gradientTransform="matrix(1.7894874,0,-0.5512719,0.5081523,156.28788,80.679797)" /><linearGradient
       x1="55.858967"
       y1="140.85255"
       x2="60.60318"
       y2="109.68265"
       id="linearGradient3319"
       xlink:href="#linearGradient4125"
       gradientUnits="userSpaceOnUse"
       gradientTransform="matrix(1.7894874,0,-0.5512719,0.5081523,156.28788,80.679797)" /><linearGradient
       x1="30.330715"
       y1="70.333397"
       x2="62.329399"
       y2="122.63345"
       id="linearGradient3321"
       xlink:href="#linearGradient4125"
       gradientUnits="userSpaceOnUse"
       gradientTransform="matrix(1.7894874,0,-0.5512719,0.5081523,156.28788,80.679797)" /><linearGradient
       x1="63.385723"
       y1="123.38573"
       x2="70.233109"
       y2="124.38009"
       id="linearGradient4105"
       xlink:href="#linearGradient3910"
       gradientUnits="userSpaceOnUse"
       gradientTransform="matrix(2.0575123,0,0,2.0575123,100.7309,-104.47785)" /><linearGradient
       x1="-102.23511"
       y1="124.46644"
       x2="-102.23511"
       y2="92.373329"
       id="linearGradient4268"
       xlink:href="#linearGradient4262"
       gradientUnits="userSpaceOnUse" /><filter
       id="filter4286"><feGaussianBlur
         id="feGaussianBlur4288"
         stdDeviation="0.61368606"
         inkscape:collect="always" /></filter><linearGradient
       x1="57.127769"
       y1="133.67189"
       x2="46.494774"
       y2="105.58078"
       id="linearGradient4292"
       xlink:href="#linearGradient4262"
       gradientUnits="userSpaceOnUse"
       gradientTransform="matrix(1.7916547,0,0,1.7916547,119.16596,-71.789597)" /><linearGradient
       x1="194.83832"
       y1="161.61644"
       x2="192.38968"
       y2="131.10091"
       id="linearGradient5020"
       xlink:href="#linearGradient5022"
       gradientUnits="userSpaceOnUse"
       gradientTransform="matrix(1.0012111,0,0,1.0012111,-0.264265,0.12619)" /><radialGradient
       cx="229.25296"
       cy="222.40904"
       r="102.9348"
       fx="228.32117"
       fy="198.80884"
       id="radialGradient5038"
       xlink:href="#linearGradient5030"
       gradientUnits="userSpaceOnUse"
       gradientTransform="matrix(1.4009483,1.1088173e-8,0,1.0012111,-94.7426,-9.070441e-2)" /><linearGradient
       x1="30.330715"
       y1="70.333397"
       x2="62.329399"
       y2="122.63345"
       id="linearGradient5040"
       xlink:href="#linearGradient4125"
       gradientUnits="userSpaceOnUse"
       gradientTransform="matrix(1.7894874,0,-0.5512719,0.5081523,156.28788,80.679797)" /><linearGradient
       x1="-88.870407"
       y1="112.42711"
       x2="-8.1832876"
       y2="-413.00314"
       id="linearGradient3642"
       xlink:href="#linearGradient3910"
       gradientUnits="userSpaceOnUse"
       gradientTransform="matrix(-0.4514152,0,0,0.4353958,7.675734,61.448911)" /><filter
       id="filter4420"><feGaussianBlur
         id="feGaussianBlur4422"
         stdDeviation="0.56114777"
         inkscape:collect="always" /></filter><radialGradient
       cx="290.71002"
       cy="145.74117"
       r="102.96875"
       fx="290.71002"
       fy="145.74117"
       id="radialGradient4775"
       xlink:href="#linearGradient4769"
       gradientUnits="userSpaceOnUse"
       gradientTransform="matrix(0.6531733,-8.940438e-2,0.1249515,0.9128748,82.153148,39.010795)"
       spreadMethod="reflect" /><linearGradient
       x1="218.45386"
       y1="53.338005"
       x2="246.25452"
       y2="25.537344"
       id="linearGradient4785"
       xlink:href="#linearGradient3667"
       gradientUnits="userSpaceOnUse"
       gradientTransform="matrix(0.9879058,0,0,0.9879058,4.8888044,0.5786914)" /></defs><path
     d="M 61.53125,4.0625 C 61.54415,4.1340678 61.55,4.2098318 61.5625,4.28125 C 61.6556,11.868071 60.06456,18.078398 57.34375,23.375 C 45.64123,25.12291 35.30802,30.816549 27.8125,39 C 26.977142,40.035689 26.443019,41.473774 25.903659,40.975317 C 23.166355,38.445597 23.576499,35.559399 22,29.15625 C 21.88907,28.447125 21.79716,27.710024 21.71875,26.96875 C 17.5021,38.036059 17.08146,46.370025 18.875,53 C 17.41979,56.531059 16.39219,60.270491 15.84375,64.15625 C 13.32558,68.20807 11.77,72.831276 11.6875,78.375 C 11.6768,79.095512 11.64,81.450949 11.6875,82.875 C 11.6116,83.837315 11.6151,84.829689 11.6875,85.8125 C 12.5246,97.170375 20.41137,112.18576 35.8125,118.9375 C 35.8978,118.9751 35.9769,119.0255 36.0625,119.0625 C 36.46694,119.23661 36.86654,119.43054 37.28125,119.59375 C 37.36435,119.62655 37.44781,119.65525 37.53125,119.68745 C 38.03686,119.88279 38.54174,120.07143 39.0625,120.24995 C 39.1336,120.27445 39.20998,120.28835 39.28125,120.31245 C 39.81772,120.49323 40.3538,120.65023 40.90625,120.81245 C 40.95985,120.82845 41.00876,120.85915 41.0625,120.87495 C 41.6371,121.04133 42.22066,121.19818 42.8125,121.3437 C 64.216837,125.61362 93.902154,126.91802 104.5,106.4687 C 104.51,106.4484 104.5216,106.4578 104.5313,106.4374 C 105.09959,105.31585 105.60974,104.12874 106.00005,102.8749 L 105.90635,102.65615 C 106.39568,100.74169 106.56977,98.827223 106.5001,96.90615 C 106.81267,96.446986 103.64116,95.969872 103.9376,95.4999 C 103.9426,95.4925 103.9326,95.47609 103.9376,95.46865 C 104.3521,94.810718 104.74308,94.178128 105.1251,93.4999 C 105.88909,92.14343 106.59103,90.74406 107.21885,89.3124 C 109.73034,83.585901 111.1251,77.295614 111.1251,70.6874 C 111.1251,64.079185 107.33034,57.788899 104.81885,52.0624 C 104.19103,50.63074 106.98909,49.20012 106.2251,47.84365 C 106.1374,47.687892 106.03332,47.560859 105.94385,47.40615 L 102.09385,38.8749 C 101.24549,37.955046 100.35624,37.072898 99.4376,36.21865 C 98.18301,30.052102 96.01489,23.056488 92.34385,15.28115 C 92.33685,15.24547 92.3194,15.1909 92.3126,15.15615 C 92.2639,15.053263 92.2056,14.946794 92.15635,14.84365 C 92.19995,15.055676 92.23885,15.336789 92.28135,15.5624 C 92.12355,21.013494 91.49068,25.611015 90.40635,29.5624 C 89.14834,28.837307 87.85825,28.148777 86.53135,27.53115 C 86.52335,27.52715 86.5086,27.53515 86.5001,27.53115 C 82.95067,25.881384 79.17617,24.64317 75.21885,23.84365 L 68.0626,22.90615 L 67.5626,22.8749 L 65.46885,22.8124 C 65.56445,20.496618 65.45305,18.156475 65.1251,15.8124 C 65.1221,15.7931 65.1281,15.7692 65.1251,15.7499 C 64.94217,14.457111 64.69669,13.168323 64.3751,11.8749 C 64.3731,11.8655 64.3771,11.85301 64.3751,11.84365 C 64.04997,10.540765 63.66036,9.2353763 63.1875,7.9375 C 62.95221,7.2854999 62.67992,6.649476 62.40625,6 C 62.1491,5.3947527 61.8852,4.7900792 61.59375,4.1875 C 61.57385,4.146171 61.55125,4.103814 61.53125,4.0625 z M 64.6875,52 C 74.157712,52 81.84375,59.654788 81.84375,69.125 C 81.84375,78.595212 74.157712,86.28125 64.6875,86.28125 C 55.217288,86.28125 47.5625,78.595212 47.5625,69.125 C 47.5625,59.654788 55.217288,52 64.6875,52 z"
     transform="matrix(2.0766569,0,0,2.0766569,99.637867,-104.48048)"
     id="path3287"
     style="fill:url(#linearGradient3642);fill-opacity:1;stroke:none;overflow:visible;filter:url(#filter4420)" /><path
     d="M -123.8125,94.21875 C -123.98512,94.414496 -124.13921,94.619875 -124.28125,94.84375 C -124.30245,94.87463 -124.32295,94.90639 -124.34375,94.9375 C -124.34875,94.9445 -124.33875,94.96169 -124.34375,94.96875 C -125.82385,97.188458 -126.519,99.967155 -126.71875,102.9375 C -126.72175,102.979 -126.71575,103.0209 -126.71875,103.0625 C -126.75885,103.70457 -126.78485,104.34522 -126.78125,105 C -126.78122,105.0211 -126.78132,105.0414 -126.78125,105.0625 C -126.77625,105.69835 -126.75935,106.35956 -126.71875,107 C -126.71675,107.0313 -126.72075,107.0624 -126.71875,107.0937 C -126.67585,107.74426 -126.60565,108.38359 -126.53125,109.0312 C -126.52825,109.0621 -126.53525,109.0941 -126.53125,109.1249 C -126.45545,109.77251 -126.35179,110.42551 -126.25,111.0624 C -126.247,111.0827 -126.253,111.1046 -126.25,111.1249 C -126.14591,111.77098 -126.03144,112.40405 -125.90625,113.03115 C -125.90225,113.05095 -125.91025,113.07385 -125.90625,113.09365 C -125.78055,113.71964 -125.64105,114.33835 -125.5,114.9374 C -125.498,114.9474 -125.502,114.9589 -125.5,114.9687 C -125.35655,115.57647 -125.18467,116.14689 -125.03125,116.7187 C -125.02825,116.7277 -125.03425,116.7405 -125.03125,116.75 C -124.72183,117.90082 -124.40772,118.98288 -124.09375,119.9375 C -123.91149,120.48869 -123.73377,120.90584 -123.5625,121.375 C -123.70776,121.3317 -123.85731,121.2874 -124,121.25 C -127.63951,119.9375 -130.94127,120.16563 -131.84375,123.1875 C -129.68713,121.14786 -124.66717,121.8107 -124.3125,122.71875 C -121.915,122.93109 -121.47019,122.95965 -120.40625,123.125 C -120.38545,123.129 -120.36465,123.121 -120.34375,123.125 C -120.06515,123.1686 -119.94854,123.2089 -119.5,123.28125 C -119.4822,123.28425 -119.4554,123.27825 -119.4375,123.28125 C -118.77552,123.39503 -118.05211,123.5173 -117.15625,123.65625 C -116.28859,123.74625 -115.34682,123.89605 -114.40625,124.03125 C -113.56563,124.19673 -111.50268,124.44902 -110.1875,124.53125 C -109.88419,124.54965 -109.27111,124.54885 -108.4375,124.53125 C -107.28197,124.84426 -105.79372,124.71234 -104.3125,124.46875 C -104.4049,124.52025 -104.5054,124.57343 -104.59375,124.625 C -104.31273,124.6071 -104.08441,124.5807 -103.8125,124.5625 C -103.8234,124.5752 -103.8327,124.5809 -103.8438,124.5938 C -102.68622,124.71013 -100.17519,124.78588 -99.1563,124.6251 L -93.504492,124.49988 C -93.811588,124.80575 -93.65683,124.18902 -93.9688,124.53138 C -93.91173,124.53103 -93.89808,124.53162 -93.8438,124.53138 C -93.88564,124.57668 -93.92684,124.61038 -93.9688,124.65638 C -93.826732,124.61618 -93.728376,124.57178 -93.5938,124.53138 C -91.991449,124.52938 -91.494109,124.56728 -88.75005,124.37513 C -88.295433,122.33328 -80.826897,119.85135 -78.06255,124.43763 C -79.205717,117.7227 -83.337924,117.10357 -87.93755,119.93763 C -87.95894,119.94663 -87.97862,119.95953 -88.00005,119.96893 C -85.755985,117.43808 -82.972157,111.36461 -84.089894,108.84393 C -85.120838,112.37518 -89.992694,117.80302 -93.87505,119.75018 C -93.663297,118.68296 -93.699056,117.73293 -93.7813,116.81268 C -92.29577,114.0594 -91.716634,111.09315 -92.3438,108.43768 C -93.93483,109.73442 -94.649896,110.71341 -95.4063,112.06268 C -96.540742,113.69109 -96.722441,114.527 -97.2188,115.31268 C -98.407032,117.19351 -100.8799,119.86415 -108.06255,121.06268 C -107.68187,118.17339 -108.55333,113.81082 -109.0938,111.75018 C -109.53912,113.19888 -109.83744,114.65438 -110.06255,116.06268 C -110.29947,117.16652 -110.62285,118.32424 -111.00005,119.40643 C -119.00926,113.11261 -124.57312,98.913899 -123.81255,94.21893 L -123.8125,94.21873 L -123.8125,94.21875 z"
     transform="matrix(2.0575123,0,0,2.0575123,443.35536,-104.06635)"
     id="path4140"
     style="fill:url(#linearGradient4268);fill-opacity:1;stroke:none;overflow:visible;filter:url(#filter4286)" /><g
     transform="matrix(1.0012111,0,0,1.5421212,-0.2642654,-82.101131)"
     id="g3254"
     style="overflow:visible"><path
       d="M 89.802561,124.28769 A 26.870058,3.3587573 0 1 1 36.062445,124.28769 A 26.870058,3.3587573 0 1 1 89.802561,124.28769 z"
       transform="matrix(2.3906424,0,0,1.5570042,79.516946,-49.74534)"
       id="path3205"
       style="fill:url(#radialGradient3268);fill-opacity:1;stroke:none;filter:url(#filter4121)" /><path
       d="M 188.60166,113.0161 C 186.85693,118.75839 201.31947,137.48567 220.87383,142.64492 C 219.02116,147.44615 209.41087,145.65719 202.2786,145.26298 C 193.3897,136.85013 178.84845,118.91278 188.60166,113.0161 L 188.60166,113.0161 z"
       id="path3207"
       style="fill:url(#linearGradient3270);fill-opacity:1;stroke:none" /><path
       d="M 188.60166,113.0161 C 176.41498,121.16334 185.39258,137.83575 189.87903,143.93368 C 193.73035,144.56074 196.71244,144.80408 203.46972,145.36127 C 194.95623,136.51832 180.27893,119.06185 188.60166,113.0161 L 188.60166,113.0161 z"
       id="path3209"
       style="fill:url(#linearGradient3272);fill-opacity:1;stroke-width:1px" /><path
       d="M 253.2703,128.57979 C 244.69722,133.37018 244.87137,134.7779 243.27836,136.12231 C 240.56453,138.41261 234.57095,141.77146 215.67723,142.79748 C 215.61463,148.31114 229.01886,146.17113 236.61867,145.30753 C 248.69117,141.49414 255.81718,134.3293 253.2703,128.57979 L 253.2703,128.57979 z"
       id="path3211"
       style="fill:url(#linearGradient3274);fill-opacity:1;stroke:none" /><path
       d="M 216.59976,146.21638 C 218.42493,143.29203 216.97823,135.97327 218.87266,132.24215 C 220.42942,135.4067 223.23804,143.49394 218.57688,145.20441 C 220.16842,145.57576 213.85366,146.12483 216.59976,146.21638 L 216.59976,146.21638 z"
       id="path3213"
       style="fill:url(#linearGradient3276);fill-opacity:1;stroke-width:1px" /><path
       d="M 253.2703,128.57979 C 245.01904,135.45912 255.19965,135.18958 247.25354,142.19008 C 242.24769,144.14281 238.71909,145.17817 230.51781,146.02657 C 248.53184,133.75589 244.67171,132.31629 253.2703,128.57979 z"
       id="path3215"
       style="fill:url(#linearGradient3278);fill-opacity:1;stroke-width:1px" /><path
       d="M 228.11377,146.34357 C 238.59342,143.08221 263.14831,140.04818 267.38554,132.31001 C 268.93179,140.13255 253.4352,142.94806 244.86048,145.61343 C 239.66301,145.89239 234.48587,146.12725 228.11377,146.34357 L 228.11377,146.34357 z"
       id="path3217"
       style="fill:url(#linearGradient3280);fill-opacity:1;stroke-width:1px" /><path
       d="M 216.59975,146.21638 C 215.47019,143.07781 215.78038,137.6056 218.87266,132.24215 C 216.68516,136.86896 221.39442,144.05609 222.22212,146.19508 C 219.03237,146.26828 217.46059,146.24408 216.59975,146.21638 L 216.59975,146.2164 L 216.59975,146.21638 z"
       id="path3219"
       style="fill:url(#linearGradient3282);fill-opacity:1;stroke-width:1px" /><path
       d="M 216.59976,146.21638 C 218.00919,143.85226 215.71429,140.62209 216.69696,137.54675 L 217.01469,136.48595 C 215.58751,140.19525 213.15323,144.60903 207.80053,145.67696 C 209.47115,145.85857 213.8537,146.12483 216.5998,146.21638 L 216.59976,146.21638 z"
       id="path3221"
       style="fill:url(#linearGradient3284);fill-opacity:1;stroke-width:1px" /><path
       d="M 238.70619,145.95232 C 249.18584,142.69096 263.83496,140.82408 267.38554,132.31001 C 270.98682,136.6401 261.86519,142.47386 253.29047,145.13922 L 238.70619,145.95232 L 238.70619,145.95232 z"
       id="path3223"
       style="fill:url(#linearGradient3286);fill-opacity:1;stroke-width:1px" /><path
       d="M 89.802561,124.28769 A 26.870058,3.3587573 0 1 1 36.062445,124.28769 A 26.870058,3.3587573 0 1 1 89.802561,124.28769 z"
       transform="matrix(1.8313621,0,0,1.300626,114.71384,-17.019582)"
       id="path3225"
       style="fill:url(#radialGradient3288);fill-opacity:1;stroke:none;filter:url(#filter4121)" /><path
       d="M 188.60166,113.0161 C 176.45995,121.45725 185.39258,137.83575 189.87903,143.93368 C 193.73035,144.56074 197.03031,144.81619 203.46972,145.36127 C 194.95623,136.51832 180.25837,119.60153 188.60166,113.0161 L 188.60166,113.0161 z"
       id="path3227"
       style="opacity:0.03960398;fill:url(#pattern3252);fill-opacity:1;stroke-width:1px" /></g><path
     d="M 89.802561,124.28769 A 26.870058,3.3587573 0 1 1 36.062445,124.28769 A 26.870058,3.3587573 0 1 1 89.802561,124.28769 z"
     transform="matrix(2.3935378,0,0,2.7155106,79.348985,-191.47718)"
     id="path4105"
     style="fill:url(#radialGradient4113);fill-opacity:1;stroke:none;overflow:visible;filter:url(#filter4121)" /><g
     transform="matrix(1.0012111,0,0,1.0012111,1.7932467,0.1261892)"
     clip-path="url(#clipPath4075)"
     id="g4061"
     style="overflow:visible;filter:url(#filter4071)"><path
       d="M 146.6847,-60.060342 C 145.1258,-51.107818 145.73242,-42.835989 146.50219,-35.473376 C 146.99945,-30.71719 147.78088,-26.445547 149.17967,-22.262009 C 150.47106,-18.399687 151.90217,-14.638477 153.77157,-11.185055 C 158.58883,-2.2858951 165.56142,4.2189569 172.75422,11.196574 C 188.07588,26.059904 198.8727,42.781408 209.71515,57.247784 C 215.5426,65.02297 223.74748,81.88244 223.74967,91.998008 C 223.75567,118.58473 211.72977,122.37044 192.54532,132.10832 C 203.84126,120.85172 207.91912,104.70263 207.75789,86.891499 C 207.33166,39.805468 122.22236,37.514045 141.57312,-43.362272 C 142.82369,-48.588983 144.51053,-54.143906 146.6847,-60.060342 L 146.6847,-60.060342 z"
       id="path4063"
       style="fill:url(#linearGradient3936);fill-opacity:1;stroke:none" /><path
       d="M 146.60696,-60.123281 C 153.63265,8.7106694 230.28301,27.666574 219.62688,86.663223 C 219.35245,88.182556 219.67518,94.323148 219.50662,95.923053 C 214.90506,55.095173 152.01698,16.554124 146.42658,-31.381746 C 144.67331,-39.43899 145.31279,-52.172566 146.60696,-60.123281 L 146.60696,-60.123281 z"
       id="path4065"
       style="fill:url(#linearGradient3938);fill-opacity:1;stroke:none" /><path
       d="M 323.23195,-80.394045 C 325.03831,-70.020365 324.3354,-60.435435 323.44343,-51.904055 C 322.86724,-46.392855 321.96176,-41.443115 320.34092,-36.595468 C 318.84453,-32.120026 317.18624,-27.761748 315.02008,-23.760117 C 309.43811,-13.448273 301.35867,-5.910817 293.02406,2.174453 C 275.27018,19.397241 271.59076,23.343449 259.02714,40.106271 C 252.27462,49.115718 248.57155,60.168335 248.56901,71.889683 C 248.56201,102.69688 246.577,120.20759 231.81644,147.41771 C 252.37834,130.77792 271.23404,91.50239 271.38682,70.863587 C 271.82306,11.932526 361.28643,0.035987 323.23195,-80.394045 L 323.23195,-80.394045 z"
       id="path4067"
       style="fill:url(#linearGradient3928);fill-opacity:1;stroke:none" /><path
       d="M 323.32203,-80.466975 C 336.34996,-3.7057008 253.07174,-33.856441 248.33039,69.350139 C 248.24829,71.13726 248.27439,78.226022 248.46974,80.079903 C 255.08616,36.110272 317.0532,8.382479 323.53105,-47.162905 C 325.56264,-56.499185 324.82164,-71.254135 323.32203,-80.466975 L 323.32203,-80.466975 z"
       id="path4069"
       style="fill:url(#linearGradient3930);fill-opacity:1;stroke:none" /></g><path
     d="M 141.59054,48.983326 L 125.42105,69.896319 C 138.37435,134.69022 175.00522,150.16616 221.60974,151.68243 L 223.30058,136.61787 C 137.2788,125.47145 161.61175,61.188474 141.59054,48.983326 z"
     id="path3940"
     style="fill:url(#linearGradient3948);fill-opacity:1;stroke-width:1px;overflow:visible" /><path
     d="M 144.76326,-54.772532 C 127.59728,-8.0598708 140.84189,16.104242 159.29444,34.150576 L 159.29444,4.6381337 C 156.53212,1.4272248 154.00286,-1.9580667 151.90025,-5.8423212 C 150.02858,-9.2999258 148.5638,-13.098747 147.27085,-16.965746 C 145.87036,-21.15435 145.13253,-25.384736 144.63466,-30.146682 C 143.86396,-37.518211 143.20247,-45.809164 144.76326,-54.772532 z M 202.25626,107.76742 C 200.18908,111.4938 197.61764,114.92437 194.5406,117.99069 C 200.12431,115.15645 205.29532,111.76622 209.77904,107.76742 L 202.25626,107.76742 L 202.25626,107.76742 z"
     id="path3932"
     style="fill:url(#linearGradient4097);fill-opacity:1;stroke:none;overflow:visible" /><path
     d="M 144.76326,-54.772535 C 143.46752,-46.81219 142.81497,-34.098662 144.57036,-26.031661 C 146.76673,-7.1985615 158.79262,7.1653578 172.79686,20.133771 L 172.79686,1.2946744 C 159.1506,-12.299937 147.40412,-28.887126 144.76326,-54.772535 z"
     id="path3934"
     style="fill:url(#linearGradient4094);fill-opacity:1;stroke:none;overflow:visible" /><g
     transform="matrix(1.0009329,-2.3602139e-2,2.3602139e-2,1.0009329,-162.49087,-97.361086)"
     id="g5826"
     style="overflow:visible"><path
       d="M 452.52861,27.13576 C 454.33498,37.50944 455.35919,55.749611 454.46723,64.280991 C 453.89104,69.792192 452.94131,74.717582 451.32048,79.565228 C 449.82409,84.04067 448.22064,88.407494 446.05448,92.409124 C 440.89119,101.94752 431.87021,100.50376 424.20782,107.92387 L 468.18588,126.79148 C 468.84587,111.91397 473.88832,76.545553 452.52861,27.13576 L 452.52861,27.13576 z"
       id="path3924"
       style="fill:url(#linearGradient5830);fill-opacity:1;stroke:none" /><path
       d="M 452.78912,27.460638 C 451.14815,63.604307 440.42199,82.689524 423.36195,95.083752 L 423.36195,114.99179 C 437.92501,99.588316 450.75917,96.773723 453.38226,75.029031 C 456.58033,62.375397 454.34027,36.673478 452.78912,27.460638 z"
       id="path3926"
       style="fill:url(#linearGradient5832);fill-opacity:1;stroke:none" /></g><path
     d="M 234.67814,-63.743511 C 177.76011,-63.743511 131.61868,-17.602076 131.61868,39.315945 C 131.61868,96.233966 177.76011,142.37541 234.67814,142.37541 C 291.59617,142.37541 337.7376,96.233108 337.7376,39.315945 C 337.7376,-17.601216 291.59617,-63.743511 234.67814,-63.743511 L 234.67814,-63.743511 z M 234.67814,73.669098 C 215.70574,73.669098 200.32498,58.288334 200.32498,39.315945 C 200.32498,20.343558 215.70574,4.962793 234.67814,4.962793 C 253.65138,4.962793 269.03129,20.343558 269.03129,39.315945 C 269.03129,58.288334 253.65138,73.669098 234.67814,73.669098 z"
     id="path15"
     style="fill:url(#linearGradient2869);fill-opacity:1;overflow:visible" /><path
     d="M 234.67814,-63.743511 C 177.76011,-63.743511 131.61868,-17.602076 131.61868,39.315945 C 131.61868,96.233966 177.76011,142.37541 234.67814,142.37541 C 291.59617,142.37541 337.7376,96.233108 337.7376,39.315945 C 337.7376,-17.601216 291.59617,-63.743511 234.67814,-63.743511 L 234.67814,-63.743511 z M 234.67814,73.669098 C 215.70574,73.669098 200.32498,58.288334 200.32498,39.315945 C 200.32498,20.343558 215.70574,4.962793 234.67814,4.962793 C 253.65138,4.962793 269.03129,20.343558 269.03129,39.315945 C 269.03129,58.288334 253.65138,73.669098 234.67814,73.669098 z"
     id="path5028"
     style="fill:#d5d5ff;fill-opacity:1;overflow:visible" /><path
     d="M 234.42358,5.1936594 C 215.4596,5.1936594 200.08564,20.571614 200.08564,39.540533 C 200.08564,58.509453 215.4596,73.887406 234.42358,73.887406 C 253.38844,73.887406 268.76154,58.509453 268.76154,39.540533 C 268.76154,20.571614 253.38844,5.1936594 234.42358,5.1936594 L 234.42358,5.1936594 z M 234.42358,53.279282 C 226.83747,53.279282 220.68841,47.128616 220.68841,39.540533 C 220.68841,31.953308 226.83747,25.801783 234.42358,25.801783 C 242.0097,25.801783 248.15877,31.953308 248.15877,39.540533 C 248.15877,47.128616 242.0097,53.279282 234.42358,53.279282 z"
     id="path48"
     style="opacity:0.5;fill:#ffffff;overflow:visible" /><path
     d="M 232.40625,-75.25 C 175.53806,-75.25 129.4375,-29.149429 129.4375,27.71875 C 129.4375,84.586926 175.53806,130.6875 232.40625,130.6875 C 289.27443,130.6875 335.375,84.58607 335.375,27.71875 C 335.375,-29.148573 289.27443,-75.25 232.40625,-75.25 z M 232.40625,-73.46875 C 288.28929,-73.46875 333.59375,-28.16429 333.59375,27.71875 C 333.59375,83.600904 288.28929,128.90625 232.40625,128.90625 C 176.52321,128.90625 131.21875,83.600907 131.21875,27.71875 C 131.21875,-28.164291 176.52321,-73.46875 232.40625,-73.46875 z"
     transform="matrix(1.0045347,0,0,1.0045347,1.217984,11.471501)"
     id="path4765"
     style="fill:url(#radialGradient4775);fill-opacity:1;overflow:visible" /><path
     d="M 234.42358,5.1936594 C 215.4596,5.1936594 200.08564,20.571614 200.08564,39.540533 C 200.08564,58.509453 215.4596,73.887406 234.42358,73.887406 C 253.38844,73.887406 268.76154,58.509453 268.76154,39.540533 C 268.76154,20.571614 253.38844,5.1936594 234.42358,5.1936594 L 234.42358,5.1936594 z M 234.42358,60.148656 C 223.06288,60.148656 213.82081,50.903337 213.82081,39.540533 C 213.82081,28.177728 223.06288,18.932409 234.42358,18.932409 C 245.78344,18.932409 255.02635,28.176869 255.02635,39.540533 C 255.02635,50.904197 245.78344,60.148656 234.42358,60.148656 z"
     id="path57"
     style="opacity:0.5;fill:url(#linearGradient2857);overflow:visible" /><g
     transform="matrix(0.8584488,0,0,0.8586718,35.04001,15.892181)"
     id="g61"
     style="opacity:0.6;overflow:visible"><defs
       id="defs63"><path
         d="M 232.5,-92.699 C 166.226,-92.699 112.5,-38.973 112.5,27.301 C 112.5,93.575 166.226,147.301 232.5,147.301 C 298.774,147.301 352.5,93.574 352.5,27.301 C 352.5,-38.972 298.774,-92.699 232.5,-92.699 L 232.5,-92.699 z M 232.5,70.741 C 208.509,70.741 189.06,51.292 189.06,27.301 C 189.06,3.311 208.509,-16.138 232.5,-16.138 C 256.492,-16.138 275.939,3.311 275.939,27.301 C 275.939,51.292 256.492,70.741 232.5,70.741 L 232.5,70.741 z"
         id="XMLID_9_"
         style="opacity:0.8" /></defs><clipPath
       id="clipPath8211"><use
         id="use8213"
         x="0"
         y="0"
         width="263.043"
         height="263.04199"
         xlink:href="#XMLID_9_" /></clipPath><g
       clip-path="url(#XMLID_17_)"
       id="g69"><g
         id="g71"
         style="opacity:0.9;fill:url(#linearGradient3231);fill-opacity:1;filter:url(#filter5172)"><path
           d="M 109.96723,78.957075 L 232,27 L 200.05594,149.03173 L 109.96723,78.957075 z"
           id="polygon73"
           style="fill:url(#linearGradient2889);fill-opacity:1" /></g><g
         id="g75"
         style="opacity:0.8;fill:url(#linearGradient2832);fill-opacity:1;filter:url(#filter4199)"><path
           d="M 356.38585,-18.607418 L 232,27 L 273.59529,-93.378925 L 356.38585,-18.607418 L 356.38585,-18.607418 z"
           id="polygon77"
           style="fill:url(#linearGradient2891);fill-opacity:1" /></g></g></g><path
     d="M 234.42358,18.932409 C 223.06288,18.932409 213.82081,28.176869 213.82081,39.540533 C 213.82081,50.904197 223.06288,60.148656 234.42358,60.148656 C 245.78344,60.148656 255.02635,50.903337 255.02635,39.540533 C 255.02635,28.177728 245.78344,18.932409 234.42358,18.932409 z"
     id="path59"
     style="fill:none;stroke:#d0d0d0;stroke-width:1.03059471;stroke-miterlimit:4;stroke-dasharray:none;stroke-opacity:1;overflow:visible" /><path
     d="M 234.42358,18.932409 C 223.06288,18.932409 213.82081,28.176869 213.82081,39.540533 C 213.82081,50.904197 223.06288,60.148656 234.42358,60.148656 C 245.78344,60.148656 255.02635,50.903337 255.02635,39.540533 C 255.02635,28.177728 245.78344,18.932409 234.42358,18.932409 z M 234.42358,53.279282 C 226.83747,53.279282 220.68841,47.128616 220.68841,39.540533 C 220.68841,31.953308 226.83747,25.801783 234.42358,25.801783 C 242.0097,25.801783 248.15877,31.953308 248.15877,39.540533 C 248.15877,47.128616 242.0097,53.279282 234.42358,53.279282 z"
     id="path46"
     style="opacity:0.2;fill:#ffffff;overflow:visible" /><path
     d="M 234.42358,18.932409 C 223.06288,18.932409 213.82081,28.176869 213.82081,39.540533 C 213.82081,50.904197 223.06288,60.148656 234.42358,60.148656 C 245.78344,60.148656 255.02635,50.903337 255.02635,39.540533 C 255.02635,28.177728 245.78344,18.932409 234.42358,18.932409 z M 234.42358,53.279282 C 226.83747,53.279282 220.68841,47.128616 220.68841,39.540533 C 220.68841,31.953308 226.83747,25.801783 234.42358,25.801783 C 242.0097,25.801783 248.15877,31.953308 248.15877,39.540533 C 248.15877,47.128616 242.0097,53.279282 234.42358,53.279282 z"
     id="path44"
     style="opacity:0.5;fill:url(#linearGradient2839);fill-opacity:1;overflow:visible" /><path
     d="M 234.42358,-1.6757155 C 211.70302,-1.6757155 193.21803,16.814066 193.21803,39.540533 C 193.21803,62.267 211.70302,80.756781 234.42358,80.756781 C 257.14415,80.756781 275.62913,62.267 275.62913,39.540533 C 275.62913,16.814066 257.14415,-1.6757155 234.42358,-1.6757155 L 234.42358,-1.6757155 z M 234.42358,73.887406 C 215.4596,73.887406 200.08564,58.509453 200.08564,39.540533 C 200.08564,20.571614 215.4596,5.1936594 234.42358,5.1936594 C 253.38844,5.1936594 268.76154,20.571614 268.76154,39.540533 C 268.76154,58.509453 253.38844,73.887406 234.42358,73.887406 L 234.42358,73.887406 z"
     id="path35"
     style="opacity:0.1;fill:#323232;fill-opacity:1;overflow:visible" /><path
     d="M 231.0625,-75.25 C 174.80882,-74.537402 129.4375,-28.703925 129.4375,27.71875 C 129.4375,84.585695 175.53929,130.6875 232.40625,130.6875 C 289.2732,130.6875 335.375,84.584839 335.375,27.71875 C 335.375,-29.147342 289.2732,-75.25 232.40625,-75.25 C 231.96198,-75.25 231.50544,-75.255611 231.0625,-75.25 z M 231.09375,-73.46875 C 231.52904,-73.474263 231.96965,-73.46875 232.40625,-73.46875 C 288.29052,-73.46875 333.59375,-28.165521 333.59375,27.71875 C 333.59375,83.602135 288.29052,128.90625 232.40625,128.90625 C 176.52198,128.90625 131.21875,83.602138 131.21875,27.71875 C 131.21875,-27.728926 175.81224,-72.768545 231.09375,-73.46875 z"
     transform="matrix(1.0045347,0,0,1.0045347,1.217984,11.471501)"
     id="path3665"
     style="opacity:0.5;fill:url(#linearGradient3673);fill-opacity:1;overflow:visible" /><g
     transform="matrix(1.0012111,0,0,1.0012111,241.84859,0.1261892)"
     clip-path="url(#clipPath4030)"
     id="g3986"
     style="opacity:0.5;overflow:visible;filter:url(#filter4026)"><path
       d="M 2.9739193,-93.839913 C 4.9334692,-82.586481 4.1709493,-72.188673 3.2033293,-62.93377 C 2.5782792,-56.955189 1.596009,-51.585671 -0.16229095,-46.326908 C -1.7855909,-41.471916 -3.584511,-36.744025 -5.9343809,-32.403027 C -11.989741,-21.216663 -26.611197,-15.608755 -35.652637,-6.8377961 C -54.912177,11.845609 -78.0242,19.79398 -91.65331,37.978411 C -98.978492,47.751924 -109.41756,52.035545 -109.42031,64.750949 C -109.42831,98.170826 -99.338848,116.85439 -75.223738,129.09503 C -89.422888,114.94533 -95.183893,95.923219 -91.006736,73.926579 C -80.157601,16.795737 53.736669,-0.37716296 2.9739193,-93.839913 z"
       id="path3970"
       style="fill:url(#linearGradient4036);fill-opacity:1;stroke:none" /><path
       d="M 3.2771416,-92.275014 C 4.7415116,-3.4613851 -103.54684,-13.499841 -104.53963,55.663134 C -104.56753,57.603656 -104.60033,65.291756 -104.38846,67.30286 C -98.604238,15.981665 -3.5233386,4.1095131 3.5038816,-56.146516 C 5.7077716,-66.27459 4.9039216,-82.280864 3.2771416,-92.275014 L 3.2771416,-92.275014 z"
       id="path3972"
       style="fill:url(#linearGradient4038);fill-opacity:1;stroke:none" /><path
       d="M -34.150864,90.013117 C -39.226553,100.49143 -33.27311,135.12857 -13.371821,144.97689 C -15.257359,154.14177 -25.151982,150.41386 -32.410789,149.66136 C -41.457393,133.6024 -46.580322,103.44323 -34.150864,90.013117 L -34.150864,90.013117 z"
       id="path3974"
       style="fill:url(#linearGradient4040);fill-opacity:1;stroke:none" /><path
       d="M -34.150864,90.013117 C -51.06108,104.76018 -51.467747,131.44886 -46.901695,143.08898 C -43.152784,146.33483 -41.201622,148.25114 -34.232026,149.66136 C -42.896565,132.78138 -42.46028,98.736548 -34.150866,90.013117 L -34.150864,90.013117 z"
       id="path3976"
       style="fill:url(#linearGradient4042);fill-opacity:1;stroke-width:1px" /><path
       d="M 23.649377,111.73284 C 23.188132,123.04248 16.446313,144.54907 -7.592623,152.32218 C -18.197174,150.46183 -24.352827,150.33258 -32.54343,149.48348 C 2.2023136,134.95936 16.046328,125.60256 23.649377,111.73284 L 23.649377,111.73284 z"
       id="path4459"
       style="fill:url(#linearGradient4465);fill-opacity:1;stroke:none" /><path
       d="M 23.649377,111.73284 C 9.449118,125.80418 -8.0655347,143.83201 -48.894498,142.06742 C -44.664349,145.72994 -42.462721,147.89224 -34.598454,149.48348 C -2.5041376,143.28056 12.218278,136.475 23.649377,111.73284 L 23.649377,111.73284 z"
       id="path4461"
       style="fill:url(#linearGradient4463);fill-opacity:1;stroke-width:1px" /><path
       d="M -14.240118,124.06298 C -14.701363,135.37262 -21.186304,140.53462 -10.803597,147.5371 C -21.408149,145.67675 -24.352827,150.33258 -32.54343,149.48348 C -20.580605,136.32657 -21.843167,137.9327 -14.240118,124.06298 L -14.240118,124.06298 z"
       id="path4467"
       style="fill:url(#linearGradient4469);fill-opacity:1;stroke:none" /></g><g
     transform="matrix(1.0012111,0,0,1.0012111,349.77002,11.508047)"
     mask="url(#mask3853)"
     id="g3776"
     style="opacity:0.52970294;overflow:visible"><g
       id="g3754"><path
         d="M -100.8953,67.674953 L -158.74547,13.802255 L -163.87199,17.514565 L -100.8953,67.674953 z"
         transform="matrix(2.0550234,0,0,2.0550234,100.873,-104.4775)"
         id="path3678"
         style="opacity:0.70297032;fill:#ff11f7;fill-opacity:0.49732618;stroke-width:1px;filter:url(#filter4155)" /><path
         d="M -101.07208,67.719147 L -153.08862,6.731187 L -155.91704,10.443497 L -101.07208,67.719147 L -101.07208,67.719147 z"
         transform="matrix(2.0550234,0,0,2.0550234,100.873,-104.4775)"
         id="path3688"
         style="fill:#7ee0ff;fill-opacity:0.36363639;stroke-width:1px;filter:url(#filter4171)" /><path
         d="M -100.9395,68.028506 L -166.8772,22.994644 L -178.72124,39.258099 L -100.9395,68.028506 L -100.9395,68.028506 z"
         transform="matrix(2.0550234,0,0,2.0550234,100.873,-104.4775)"
         id="path3690"
         style="fill:#ff7e7e;fill-opacity:0.45454544;stroke-width:1px;filter:url(#filter3732)" /><path
         d="M -101.07208,67.586564 L -166.70042,21.403653 L -168.82174,24.585633 L -101.07208,67.586564 L -101.07208,67.586564 z"
         transform="matrix(2.0550234,0,0,2.0550234,100.873,-104.4775)"
         id="path3744"
         style="fill:#ff7e7e;fill-opacity:0.45454544;stroke-width:1px;filter:url(#filter3732)" /><path
         d="M -100.71853,67.984312 L -164.93265,18.752003 L -167.76108,22.287536 L -100.71853,67.984312 L -100.71853,67.984312 z"
         transform="matrix(2.0550234,0,0,2.0550234,100.873,-104.4775)"
         id="path3746"
         style="opacity:0.61386138;fill:#ffff11;fill-opacity:0.49732618;stroke-width:1px;filter:url(#filter3748)" /><path
         d="M -100.85111,68.0727 L -158.39192,12.564818 L -157.33126,11.680934 L -100.85111,68.0727 L -100.85111,68.0727 z"
         transform="matrix(2.0550234,0,0,2.0550234,100.873,-104.4775)"
         id="path3752"
         style="fill:#abff0f;fill-opacity:0.36363639;stroke-width:1px;filter:url(#filter4167)" /></g><g
       transform="matrix(-1,0,0,-1,-229.83094,49.030171)"
       id="g3762"><path
         d="M -104.84134,61.359731 L -48.02464,30.069724 L -50.323079,28.122904 L -104.84134,61.359731 z"
         transform="matrix(2.0550234,0,0,2.0550234,100.873,-104.4775)"
         id="path4366"
         style="opacity:0.58910887;fill:url(#linearGradient4382);fill-opacity:1;stroke-width:1px;filter:url(#filter4362)" /><path
         d="M -99.746253,65.023302 L -147.46642,14.233677 L -158.74547,25.115963 L -99.746253,65.023302 L -99.746253,65.023302 z"
         transform="matrix(2.0550234,0,0,2.0550234,100.873,-104.4775)"
         id="path3764"
         style="opacity:0.45544553;fill:url(#linearGradient4324);fill-opacity:1;stroke-width:1px;filter:url(#filter4338)" /><path
         d="M -99.833485,65.071176 L -142.31365,3.6909474 L -152.38151,8.4989535 L -99.833485,65.071176 z"
         transform="matrix(2.0550234,0,0,2.0550234,100.873,-104.4775)"
         id="path3766"
         style="fill:#7ef5ff;fill-opacity:0.36363639;stroke-width:1px;filter:url(#filter4334)" /><path
         d="M -99.834642,64.979108 L -159.2758,27.414061 L -161.15593,36.731164 L -99.834642,64.979108 L -99.834642,64.979108 z"
         transform="matrix(2.0550234,0,0,2.0550234,100.873,-104.4775)"
         id="path3768"
         style="opacity:0.32673268;fill:url(#linearGradient4320);fill-opacity:1;stroke-width:1px;filter:url(#filter4236)" /><path
         d="M -100.01142,64.89072 L -152.44549,35.197901 L -159.93863,46.166435 L -100.01142,64.89072 L -100.01142,64.89072 z"
         transform="matrix(2.0550234,0,0,2.0550234,100.873,-104.4775)"
         id="path3770"
         style="opacity:0.1831683;fill:url(#linearGradient4310);fill-opacity:1;stroke-width:1px;filter:url(#filter4330)" /><path
         d="M -99.833485,65.071176 L -159.00337,22.46689 L -161.52876,23.583898 L -99.833485,65.071176 L -99.833485,65.071176 z"
         transform="matrix(2.0550234,0,0,2.0550234,100.873,-104.4775)"
         id="path4342"
         style="fill:url(#linearGradient4350);fill-opacity:1;stroke-width:1px" /><path
         d="M -105.04194,61.279492 L -150.13186,88.335201 L -152.62736,88.170751 L -105.04194,61.279492 L -105.04194,61.279492 z"
         transform="matrix(2.0550234,0,0,2.0550234,100.873,-104.4775)"
         id="path4360"
         style="opacity:0.84158415;fill:url(#linearGradient4374);fill-opacity:1;stroke-width:1px;filter:url(#filter4362)" /></g></g><path
     d="M 227.47093,-104.11493 C 229.43285,-92.847874 228.66941,-82.437473 227.70062,-73.17136 C 227.07482,-67.185539 226.09135,-61.809518 224.33092,-56.544386 C 222.70566,-51.683514 220.90456,-46.949897 218.55184,-42.603642 C 212.48915,-31.403729 203.7139,-23.21714 194.6615,-14.435558 C 175.37864,4.2704739 148.94661,19.172576 135.30099,37.37903 C 127.96693,47.164379 123.03949,59.200904 123.9422,71.899663 C 125.9917,100.73062 148.38519,139.10198 192.71597,148.26582 C 175.28477,134.35617 146.75492,111.25548 148.97673,84.595012 C 151.56079,53.58793 169.4679,34.453668 193.81835,14.957915 C 227.06914,-11.663738 248.3298,-59.777791 227.47093,-104.11493 L 227.47093,-104.11493 z"
     id="path3891"
     style="fill:url(#linearGradient3904);fill-opacity:1;stroke:none;overflow:visible" /><path
     d="M 227.56877,-104.19415 C 229.03492,-15.272959 124.93619,-13.390001 123.9422,55.856737 C 123.9143,57.79961 123.8815,65.497021 124.09355,67.510561 C 129.88478,16.127211 220.76005,-7.692891 227.79579,-68.021897 C 230.00234,-78.162236 229.19752,-94.187896 227.56877,-104.19415 z"
     id="path3888"
     style="fill:url(#linearGradient3906);fill-opacity:1;stroke:none;overflow:visible" /><path
     d="M 188.56581,89.377012 C 186.81897,100.16022 201.29903,135.32739 220.87706,145.01574 C 219.02215,154.03175 209.40022,150.67234 202.25931,149.93207 C 193.35965,134.13394 178.80079,100.45014 188.56581,89.377012 L 188.56581,89.377012 z"
     id="path3950"
     style="fill:url(#linearGradient3960);fill-opacity:1;stroke:none;overflow:visible" /><path
     d="M 188.56581,89.377012 C 186.81897,100.16022 201.29903,135.32739 220.87706,145.01574 C 219.02215,154.03175 209.40022,150.67234 202.25931,149.93207 C 193.35965,134.13394 178.80079,100.45014 188.56581,89.377012 L 188.56581,89.377012 z"
     id="path4290"
     style="fill:url(#linearGradient4292);fill-opacity:1;stroke:none;overflow:visible" /><path
     d="M 188.56581,89.377012 C 176.36437,104.67636 185.35285,135.98479 189.84472,147.43585 C 193.70071,148.61337 196.68642,149.07032 203.45188,150.11665 C 194.92808,133.51084 180.233,100.73007 188.56581,89.377012 L 188.56581,89.377012 z"
     id="path3952"
     style="fill:url(#linearGradient3968);fill-opacity:1;stroke-width:1px;overflow:visible" /><path
     d="M 188.56581,89.377012 C 176.40939,105.22828 185.35285,135.98479 189.84472,147.43585 C 193.70071,148.61337 197.00467,149.09307 203.45188,150.11665 C 194.92808,133.51084 180.21242,101.74351 188.56581,89.377012 L 188.56581,89.377012 z"
     id="path5012"
     style="fill:url(#linearGradient5020);fill-opacity:1;stroke-width:1px;overflow:visible" /><path
     d="M 234.40625,25.5 C 226.66031,25.5 220.375,31.753231 220.375,39.5 C 220.375,47.246769 226.65786,53.59375 234.40625,53.59375 C 242.15467,53.59375 248.46875,47.247585 248.46875,39.5 C 248.46875,31.752415 242.15222,25.5 234.40625,25.5 z M 234.40625,26.65625 C 241.52963,26.65625 247.3125,32.378334 247.3125,39.5 C 247.3125,46.621668 241.52708,52.4375 234.40625,52.4375 C 227.28544,52.4375 221.53125,46.622518 221.53125,39.5 C 221.53125,32.377484 227.28289,26.65625 234.40625,26.65625 z"
     id="path4783"
     style="fill:url(#linearGradient4785);fill-opacity:1;stroke:none;overflow:visible" /><path
     d="M 253.31277,118.60342 C 244.72931,127.59908 244.90367,130.24259 243.30873,132.76719 C 240.59162,137.06805 234.59077,143.37549 215.67417,145.30222 C 215.61157,155.65609 229.03197,151.63745 236.64097,150.01574 C 248.7281,142.85473 255.86273,129.40016 253.31277,118.60342 z"
     id="path4405"
     style="fill:url(#linearGradient4409);fill-opacity:1;stroke:none;overflow:visible" /><path
     d="M 291.65859,76.054695 C 303.47379,108.86928 264.10673,141.27505 239.84532,145.10566 L 231.14781,151.57545 C 269.19462,153.7091 299.53617,145.37888 304.82452,122.68523 C 309.75358,105.58913 305.04555,88.013359 291.65859,76.054695 L 291.65859,76.054695 z"
     id="path3949"
     style="fill:url(#linearGradient3957);fill-opacity:1;stroke-width:1px;overflow:visible" /><path
     d="M 216.59782,151.72242 C 218.4252,146.2309 216.97675,132.48731 218.87347,125.4808 C 220.43212,131.42338 223.24414,146.61006 218.57733,149.82209 C 220.1708,150.51943 213.84839,151.55051 216.59782,151.72242 z"
     id="path4455"
     style="fill:url(#linearGradient4457);fill-opacity:1;stroke-width:1px;overflow:visible" /><g
     transform="matrix(1.0012111,0,0,1.0012111,-242.45876,0.1261892)"
     clip-path="url(#clipPath4090)"
     id="g4084"
     style="opacity:0.53465349;overflow:visible"><path
       d="M 550.98717,-4.3686718 C 544.97651,21.424051 547.70191,43.382461 550.71626,58.68479 L 536.18213,30.621391 C 541.11714,18.958036 539.20076,8.9768649 550.98717,-4.3686718 L 550.98717,-4.3686718 z"
       id="path3995"
       style="fill:url(#linearGradient4098);fill-opacity:1;stroke-width:1px;filter:url(#filter4049)" /><path
       d="M 524.72233,33.707092 C 517.19677,68.634689 546.34107,64.963155 538.83659,103.07525 C 535.326,120.90403 518.14717,140.35953 496.99313,156.8301 C 500.11083,156.03019 502.49898,155.19181 505.44329,153.79598 C 528.86105,142.69419 556.11506,121.59887 558.63055,101.30415 C 563.33157,63.3765 522.53602,68.657693 524.72233,33.707092 L 524.72233,33.707092 z"
       id="path3997"
       style="fill:url(#linearGradient4100);fill-opacity:1;stroke:none;filter:url(#filter4045)" /><path
       d="M 550.95686,-4.3343199 C 538.23566,10.099696 531.62613,21.089481 529.73378,29.939821 C 521.85894,66.769639 561.888,71.770053 558.63055,101.30415 C 564.22842,72.038115 554.53157,62.598807 541.86245,29.620913 C 537.10409,17.234851 544.6704,2.8164077 550.95686,-4.3343199 z"
       id="path3999"
       style="fill:url(#linearGradient4102);fill-opacity:1;stroke:none;filter:url(#filter4041)" /></g><path
     d="M 228.12578,151.96128 C 238.61812,145.8369 266.09613,134.41697 270.33848,119.88578 C 271.88661,134.5754 253.47787,145.585 244.89276,150.59018 C 239.689,151.11401 234.5056,151.55505 228.12578,151.96128 L 228.12578,151.96128 z"
     id="path4135"
     style="fill:url(#linearGradient4137);fill-opacity:1;stroke-width:1px;overflow:visible" /><path
     d="M 216.59781,151.72242 C 215.46688,145.82862 215.77745,135.5526 218.87347,125.4808 C 216.68332,134.16929 221.39829,147.6657 222.22698,151.68243 C 219.03338,151.81986 217.45969,151.77463 216.59781,151.72233 L 216.59781,151.72236 L 216.59781,151.72242 z"
     id="path4437"
     style="fill:url(#linearGradient4445);fill-opacity:1;stroke-width:1px;overflow:visible" /><path
     d="M 216.59782,151.72242 C 218.00895,147.28294 215.71128,141.21714 216.69512,135.44208 L 217.01323,133.45005 C 215.58433,140.41559 213.1471,148.70406 207.78792,150.70947 C 209.46056,151.05051 213.84841,151.55051 216.59784,151.72242 L 216.59782,151.72242 z"
     id="path4435"
     style="fill:url(#linearGradient4453);fill-opacity:1;stroke-width:1px;overflow:visible" /><path
     d="M 301.62143,-23.594648 C 287.08101,-7.8736392 290.9195,44.459606 300.94152,48.223687 L 283.87072,20.497108 C 287.45244,8.8196263 289.3756,-15.870614 301.62143,-23.594648 L 301.62143,-23.594648 z"
     id="path3939"
     style="fill:url(#linearGradient3947);fill-opacity:1;stroke-width:1px;overflow:visible" /><path
     d="M 299.38424,115.22883 C 297.9032,126.98626 290.31312,135.56722 281.01285,146.18123 C 297.56922,140.18948 313.90547,128.20778 319.79166,108.60327 L 300.30959,54.593573 C 290.37176,47.467005 279.16334,38.756473 278.03114,17.730096 C 276.00814,34.153378 282.72323,52.389909 295.385,85.67668 C 296.73576,89.22774 300.62659,105.36626 299.38424,115.22883 L 299.38424,115.22883 z"
     id="path3084"
     style="fill:url(#linearGradient3872);fill-opacity:1;stroke:none;overflow:visible" /><path
     d="M 301.62144,-23.594649 C 288.52494,-17.575918 279.02896,4.6507788 278.18383,13.513581 C 274.64388,50.637333 327.31984,93.514256 316.71622,116.4276 C 333.56582,81.191726 295.07044,42.818003 289.92562,20.523643 C 284.90408,-1.2364813 295.02571,-17.653248 301.62144,-23.594649 L 301.62144,-23.594649 z"
     id="path3087"
     style="fill:url(#linearGradient3870);fill-opacity:1;stroke:none;overflow:visible" /><path
     d="M 238.73102,151.22657 C 249.22337,145.10219 266.78361,135.89007 270.33848,119.90185 C 273.94413,128.03315 261.91808,144.6945 253.33297,149.69968 L 238.73102,151.22657 L 238.73102,151.22657 z"
     id="path4125"
     style="fill:url(#linearGradient4133);fill-opacity:1;stroke-width:1px;overflow:visible" /><path
     d="M 89.802561,124.28769 A 26.870058,3.3587573 0 1 1 36.062445,124.28769 A 26.870058,3.3587573 0 1 1 89.802561,124.28769 z"
     transform="matrix(1.8335801,0,0,2.1973061,114.5885,-125.64836)"
     id="path4139"
     style="fill:url(#radialGradient4142);fill-opacity:1;stroke:none;overflow:visible;filter:url(#filter4121)" /><path
     d="M 227.56877,-104.19415 C 229.03492,-15.272959 124.93619,-13.390001 123.9422,55.856737 C 123.9143,57.79961 123.8815,65.497021 124.09355,67.510561 C 129.88478,16.127211 220.76005,-7.692891 227.79579,-68.021897 C 230.00234,-78.162236 229.19752,-94.187896 227.56877,-104.19415 z"
     id="path4144"
     style="opacity:0.03960398;fill:url(#pattern3203);fill-opacity:1;stroke:none;overflow:visible" /><path
     d="M 227.47093,-104.11493 C 229.43285,-92.847874 228.66941,-82.437473 227.70062,-73.17136 C 227.07482,-67.185539 226.09135,-61.809518 224.33092,-56.544386 C 222.70566,-51.683514 220.90456,-46.949897 218.55184,-42.603642 C 212.48915,-31.403729 203.7139,-23.21714 194.6615,-14.435558 C 175.37864,4.2704739 148.94661,19.172576 135.30099,37.37903 C 127.96693,47.164379 123.03949,59.200904 123.9422,71.899663 C 125.9917,100.73062 148.38519,139.10198 192.71597,148.26582 C 175.28477,134.35617 146.75492,111.25548 148.97673,84.595012 C 151.56079,53.58793 169.31792,34.264848 193.81835,14.957915 C 226.8134,-11.042999 248.26816,-59.593145 227.47093,-104.11493 L 227.47093,-104.11493 z"
     id="path5588"
     style="opacity:0.03960398;fill:url(#pattern3201);fill-opacity:1;stroke:none;overflow:visible" /><path
     d="M 229.90276,-88.114376 C 229.83616,-82.951382 229.42328,-78.035567 228.93947,-73.408115 C 228.31442,-67.429534 227.29414,-62.098252 225.53584,-56.839488 C 223.91254,-51.984496 222.10596,-47.24486 219.75609,-42.903861 C 213.70073,-31.717497 204.9721,-23.546687 195.93066,-14.775728 C 176.67112,3.9076749 150.28519,18.800742 136.65608,36.985174 C 131.58189,43.755327 127.69071,51.639527 126.05986,60.039967 C 129.40043,44.087219 141.68037,30.68424 154.31643,20.544986 C 175.02553,3.7433573 197.3846,-11.586823 214.23321,-32.564525 C 226.37045,-48.119508 230.28764,-68.383488 229.90276,-88.114376 L 229.90276,-88.114376 z M 126.05986,60.039967 C 125.58167,62.503125 125.28078,65.008975 125.22501,67.553647 C 125.28661,64.981929 125.54593,62.494237 126.05986,60.039967 z M 125.22501,67.553647 C 125.19641,68.858885 125.19531,70.149645 125.28921,71.471035 C 125.19531,70.156821 125.19421,68.839506 125.22501,67.553647 z M 125.28921,71.471035 C 125.36961,72.602447 125.53127,73.780403 125.67453,74.938887 C 125.53022,73.798522 125.38255,72.619919 125.28921,71.471035 z M 126.18828,78.727836 C 126.36442,79.713892 126.61038,80.683563 126.83048,81.681933 C 126.61555,80.690602 126.36515,79.728012 126.18828,78.727836 z"
     transform="matrix(1.0012111,0,0,1.0012111,-0.2642654,0.1261892)"
     id="path5682"
     style="opacity:0.29207919;fill:url(#radialGradient5702);fill-opacity:1;stroke:none;overflow:visible;filter:url(#filter5708)" /><path
     d="M 188.56581,89.377012 C 176.40939,105.22828 185.35285,135.98479 189.84472,147.43585 C 193.70071,148.61337 197.00467,149.09307 203.45188,150.11665 C 194.92808,133.51084 180.21242,101.74351 188.56581,89.377012 L 188.56581,89.377012 z"
     id="path5726"
     style="opacity:0.03960398;fill:url(#pattern5042);fill-opacity:1;stroke-width:1px;overflow:visible" /><path
     d="M 253.31277,118.60342 C 245.05152,131.52182 255.15353,135.96179 247.1978,149.10772 C 241.82217,152.59282 238.74394,149.77282 230.53273,151.36599 C 248.56858,128.32339 244.70377,125.62003 253.31277,118.60342 z"
     id="path4407"
     style="fill:url(#linearGradient4411);fill-opacity:1;stroke-width:1px;overflow:visible" /><g
     transform="matrix(1.0012111,0,0,1.0012111,-0.2642654,0.1261892)"
     id="g3304"
     style="overflow:visible"><path
       d="M 172.06514,148.67432 C 175.54372,144.70065 184.80586,140.88548 197.58935,148.88146 C 192.73778,148.09918 190.77575,147.27482 184.674,146.00524 C 180.64601,141.52454 173.96433,144.36544 172.06514,148.67432 L 172.06514,148.67432 z"
       id="path3290"
       style="fill:url(#linearGradient5040);fill-opacity:1;stroke:none" /><path
       d="M 172.06514,148.67432 C 174.30234,143.90616 184.70468,140.82072 197.58935,148.88146 C 192.73778,148.09918 193.9225,148.27022 187.56388,147.70706 C 186.83502,145.84099 176.49705,144.48282 172.06514,148.67432 L 172.06514,148.67432 z"
       id="path3298"
       style="fill:url(#linearGradient3302);fill-opacity:1;stroke:none" /><path
       d="M 172.06514,148.67432 C 175.55083,144.71014 181.73976,144.09161 185.43581,144.30582 L 189.27376,145.05309 C 181.37112,141.90341 174.00974,142.16343 172.06514,148.67472 L 172.06514,148.67432 L 172.06514,148.67432 z"
       id="path3300"
       style="fill:url(#linearGradient3294);fill-opacity:1;stroke:none" /></g><g
     transform="matrix(-1.2833469,0,0,2.2513298,503.51321,-183.16424)"
     id="g3309"
     style="overflow:visible"><path
       d="M 172.06514,148.67432 C 175.54372,144.70065 184.80586,140.88548 197.58935,148.88146 C 192.73778,148.09918 190.77575,147.27482 184.674,146.00524 C 180.64601,141.52454 173.96433,144.36544 172.06514,148.67432 L 172.06514,148.67432 z"
       id="path3311"
       style="fill:url(#linearGradient3317);fill-opacity:1;stroke:none" /><path
       d="M 172.06514,148.67432 C 175.80134,144.72442 180.82191,143.84377 185.43581,144.30582 C 186.78356,144.5029 188.09587,144.72187 189.24719,145.06824 C 181.34455,141.91856 174.00974,142.16343 172.06514,148.67472 L 172.06514,148.67432 L 172.06514,148.67432 z"
       id="path3315"
       style="fill:url(#linearGradient3321);fill-opacity:1;stroke:none" /><path
       d="M 172.06514,148.67432 C 174.30234,143.90616 184.70468,140.70648 197.58935,148.76722 C 194.34102,148.75602 194.0227,148.81282 189.21722,148.62097 C 188.48836,146.7549 176.49705,144.48282 172.06514,148.67427 L 172.06514,148.67432 z"
       id="path3313"
       style="fill:url(#linearGradient3319);fill-opacity:1;stroke:none" /></g><path
     d="M 233.15111,151.92355 C 232.28254,150.5073 228.85612,139.78907 228.24206,138.17789 C 227.36968,140.00549 225.86271,149.08665 223.45219,151.90585 C 225.83392,152.14521 231.05473,152.25528 233.15111,151.92435 L 233.15111,151.92352 L 233.15111,151.92355 z"
     id="path3323"
     style="fill:url(#linearGradient4105);fill-opacity:1;stroke-width:1px;overflow:visible" /></svg>