<?xml version="1.0" encoding="UTF-8" standalone="no"?>
<!-- Created with Inkscape (http://www.inkscape.org/) -->

<svg
   xmlns:dc="http://purl.org/dc/elements/1.1/"
   xmlns:cc="http://creativecommons.org/ns#"
   xmlns:rdf="http://www.w3.org/1999/02/22-rdf-syntax-ns#"
   xmlns:svg="http://www.w3.org/2000/svg"
   xmlns="http://www.w3.org/2000/svg"
   xmlns:xlink="http://www.w3.org/1999/xlink"
   xmlns:sodipodi="http://sodipodi.sourceforge.net/DTD/sodipodi-0.dtd"
   xmlns:inkscape="http://www.inkscape.org/namespaces/inkscape"
   width="64"
   version="1.1"
   height="64"
   viewBox="0 0 64 64"
   id="svg2"
   inkscape:version="0.92.2 2405546, 2018-03-11"
   sodipodi:docname="folder-cloud.svg">
  <sodipodi:namedview
     pagecolor="#ffffff"
     bordercolor="#666666"
     borderopacity="1"
     objecttolerance="10"
     gridtolerance="10"
     guidetolerance="10"
     inkscape:pageopacity="0"
     inkscape:pageshadow="2"
     inkscape:window-width="1920"
     inkscape:window-height="1022"
     id="namedview17"
     showgrid="true"
     inkscape:zoom="10.429825"
     inkscape:cx="6.8222099"
     inkscape:cy="34.067489"
     inkscape:window-x="0"
     inkscape:window-y="28"
     inkscape:window-maximized="1"
     inkscape:current-layer="layer1">
    <inkscape:grid
       type="xygrid"
       id="grid830" />
  </sodipodi:namedview>
  <defs
     id="defs5455">
    <linearGradient
       inkscape:collect="always"
       id="linearGradient836">
      <stop
         style="stop-color:#147eb8;stop-opacity:1;"
         offset="0"
         id="stop832" />
      <stop
         style="stop-color:#22a3e6;stop-opacity:1"
         offset="1"
         id="stop834" />
    </linearGradient>
    <linearGradient
       id="linearGradient4172-7">
      <stop
         style="stop-color:#4183d7"
         id="stop4174-9" />
      <stop
         offset="1"
         style="stop-color:#5b94df"
         id="stop4176-4" />
    </linearGradient>
    <linearGradient
       inkscape:collect="always"
       id="linearGradient4172-5">
      <stop
         style="stop-color:#3daee9"
         id="stop4174-6" />
      <stop
         offset="1"
         style="stop-color:#6cc1ef"
         id="stop4176-6" />
    </linearGradient>
    <linearGradient
       inkscape:collect="always"
       xlink:href="#linearGradient836"
       id="linearGradient838"
       x1="419.57144"
       y1="501.79807"
       x2="419.57144"
       y2="489.79807"
       gradientUnits="userSpaceOnUse" />
    <linearGradient
       inkscape:collect="always"
       xlink:href="#linearGradient4172-5"
       id="linearGradient840"
       gradientUnits="userSpaceOnUse"
       x1="429.57144"
       y1="541.79797"
       x2="429.57144"
       y2="496.798" />
    <linearGradient
       gradientTransform="matrix(0.87507178,0,0,0.83141382,336.61472,491.79543)"
       xlink:href="#1"
       id="2"
       y1="22.12505"
       x2="0"
       y2="52.12505"
       gradientUnits="userSpaceOnUse" />
    <linearGradient
       id="1">
      <stop
         stop-color="#00a199"
         id="stop3" />
      <stop
         offset="1"
         stop-color="#00f89a"
         stop-opacity="0.988235"
         id="stop5" />
    </linearGradient>
    <linearGradient
       gradientTransform="matrix(0.842488,0,0,0.842488,339.23816,490.78108)"
       xlink:href="#1"
       id="0"
       y1="32.12505"
       x2="0"
       y2="47.12505"
       gradientUnits="userSpaceOnUse" />
  </defs>
  <metadata
     id="metadata5458">
    <rdf:RDF>
      <cc:Work
         rdf:about="">
        <dc:format>image/svg+xml</dc:format>
        <dc:type
           rdf:resource="http://purl.org/dc/dcmitype/StillImage" />
        <dc:title />
      </cc:Work>
    </rdf:RDF>
  </metadata>
  <g
     inkscape:label="Capa 1"
     inkscape:groupmode="layer"
     id="layer1"
     transform="matrix(1 0 0 1 -384.57143 -483.798)">
    <g
       transform="translate(-5e-6,-5e-5)"
       id="g4193">
      <path
         d="m 387.57144,503.79812 0,1 19.99999,0 3,-5 -4,4 z"
         id="path4224"
         style="fill:#ffffff;fill-opacity:0.235294;fill-rule:evenodd"
         inkscape:connector-curvature="0" />
      <path
         sodipodi:nodetypes="ccccccc"
         inkscape:connector-curvature="0"
         id="rect4160"
         d="m 387.57144,489.798 23.99999,0 5,6 29,0 10e-6,38 -58,0 z"
         style="fill:url(#linearGradient838);fill-opacity:1;fill-rule:evenodd;stroke:none;stroke-width:1px;stroke-linecap:butt;stroke-linejoin:miter;stroke-opacity:1" />
      <path
         sodipodi:nodetypes="cccccccc"
         inkscape:connector-curvature="0"
         style="fill:#ffffff;fill-opacity:0.235294;fill-rule:evenodd"
         id="path4166"
         d="m 411.57143,489.798 5,7 2,0 27,0 0,-1 -27,0 -2,0 z" />
      <path
         sodipodi:nodetypes="ccccccc"
         inkscape:connector-curvature="0"
         id="rect3347"
         d="m 387.57143,502.798 24,0 5,-6 29,0 10e-6,45 -58,0 z"
         style="fill:url(#linearGradient840);fill-opacity:1;fill-rule:evenodd;stroke:none;stroke-width:1px;stroke-linecap:butt;stroke-linejoin:miter;stroke-opacity:1" />
      <path
         d="m 416.57143,496.798 -4,7 -4,0 -21,0 0,-1 21,0 3,0 z"
         id="path4168"
         style="fill:#ffffff;fill-opacity:0.235294;fill-rule:evenodd"
         inkscape:connector-curvature="0"
         sodipodi:nodetypes="cccccccc" />
      <path
         sodipodi:nodetypes="cccccc"
         d="m 387.57143,501.798 0,1 24,0 5,-6 -6,5 z"
         id="path4228"
         style="fill:#000000;fill-opacity:0.23529412;fill-rule:evenodd"
         inkscape:connector-curvature="0" />
      <path
         d="m 387.57143,540.7981 0,1 1,0 56,0 1,0 0,-1 -1,0 -56,0 -1,0 z"
         id="path4151-2"
         style="fill-opacity:0.235294"
         inkscape:connector-curvature="0" />
      <rect
         y="493.798"
         x="390.57144"
         height="3.9999897"
         width="17.999998"
         id="rect4184"
         style="fill:#000000;fill-opacity:0.23529412;stroke:none" />
      <rect
         style="fill:#ffffff;fill-opacity:1;stroke:none"
         id="rect4186"
         width="16.000004"
         height="1.9999911"
         x="391.57144"
         y="494.798" />
      <path
         sodipodi:nodetypes="ccccc"
         inkscape:connector-curvature="0"
         id="rect4190"
         d="m 391.57142,494.798 6.00001,0 0,2 -6.00001,0 z"
         style="fill:#17c4fc;fill-opacity:1;stroke:none" />
    </g>
    <g
       transform="matrix(0.96976057,0,0,0.92910803,19.239376,32.557801)"
       id="g23">
      <path
         style="opacity:0.9;fill:url(#2)"
         inkscape:connector-curvature="0"
         d="m 413.68626,536.74941 c -2.27719,-0.35529 -5.23425,-2.83582 -7.93511,-6.64553 -1.13111,-1.59775 -2.28995,-3.57275 -3.04823,-5.19139 -0.14888,-0.32568 -0.20779,-0.40245 -0.2528,-0.3553 -0.0901,0.0897 -0.75255,1.45192 -1.09996,2.26566 -0.5863,1.37073 -0.99606,2.67355 -1.23036,3.92805 -0.15355,0.78851 -0.16274,2.31277 -0.023,2.78869 0.32431,1.09661 1.033,1.5594 2.13755,1.37956 0.79761,-0.12831 1.75782,-0.53956 2.78165,-1.19969 0.45128,-0.29172 0.57244,-0.34326 0.74793,-0.34326 0.27007,0 0.46859,0.13707 0.56318,0.38603 0.0639,0.16671 0.0639,0.2182 0,0.37724 -0.0637,0.15904 -0.16726,0.24891 -0.64515,0.55268 -0.66254,0.42877 -1.79941,0.9771 -2.3719,1.15253 -1.51896,0.46278 -2.70089,0.29172 -3.5388,-0.50553 -0.76634,-0.73254 -1.08262,-1.91469 -0.98337,-3.5684 0.1212,-2.14604 1.12765,-5.08065 2.69618,-7.95926 l 0.39249,-0.71938 -0.29775,-0.76655 c -0.28866,-0.73254 -0.84724,-2.42895 -0.84724,-2.55726 0,-0.0944 -0.1708,-0.0723 -0.92915,0.10303 -1.73132,0.40245 -3.01594,0.92115 -3.93579,1.57692 -1.81213,1.29402 -1.33429,2.75032 1.37924,4.20232 0.43288,0.23571 0.5321,0.35963 0.5321,0.66784 0,0.15897 -0.0314,0.22256 -0.17081,0.35529 -0.29783,0.2829 -0.57248,0.2226 -1.49241,-0.31697 -1.32498,-0.78409 -2.16411,-1.67013 -2.46188,-2.61321 -0.10855,-0.34327 -0.10855,-1.03193 0,-1.37954 0.15348,-0.5012 0.41893,-0.89927 0.89683,-1.35326 1.06412,-1.01984 2.83586,-1.80389 5.26201,-2.33033 0.49627,-0.10744 0.60823,-0.14585 0.59093,-0.20609 -0.0139,-0.0427 -0.073,-0.30821 -0.13047,-0.5999 -0.32897,-1.67893 -0.33816,-3.60681 -0.0232,-4.67822 0.3648,-1.22923 1.02384,-1.96621 2.0741,-2.30837 0.42822,-0.13709 1.28927,-0.11508 1.87564,0.0515 0.59552,0.16671 1.32507,0.5099 1.97478,0.92553 0.77564,0.49241 1.00535,0.69856 1.03648,0.93761 0.0727,0.54833 -0.51818,0.84439 -1.00522,0.49678 -1.52363,-1.07471 -2.61089,-1.4903 -3.48579,-1.31484 -0.63597,0.12829 -1.11836,0.74576 -1.36197,1.73922 -0.0993,0.3937 -0.11312,0.58233 -0.11312,1.56381 0,1.11852 0.0184,1.294 0.22978,2.46303 l 0.10842,0.58664 0.25277,-0.0298 c 1.16805,-0.13268 2.17337,-0.22699 2.79089,-0.26099 l 0.73521,-0.0387 0.12119,-0.13706 c 1.24428,-1.51662 3.04829,-3.28983 4.41834,-4.33494 2.62005,-1.99585 4.86493,-2.68995 6.41157,-1.97934 0.87488,0.39805 1.42428,1.22048 1.6413,2.43772 0.13961,0.79286 0.026,2.67358 -0.1893,3.20433 -0.073,0.17987 -0.3151,0.31257 -0.57712,0.31257 -0.16274,0 -0.24808,-0.0298 -0.37394,-0.14149 -0.1535,-0.12388 -0.16278,-0.16229 -0.16278,-0.41559 0,-0.15025 0.0408,-0.5867 0.09,-0.96396 0.14889,-1.09658 0.045,-2.12523 -0.26541,-2.71189 -0.15818,-0.28737 -0.46865,-0.5911 -0.74449,-0.71506 -0.20316,-0.0987 -0.3151,-0.11182 -0.78486,-0.11182 -0.50554,0 -0.60363,0.0175 -1.09066,0.17987 -1.52826,0.49671 -3.27798,1.68764 -5.16285,3.50806 -0.36469,0.35091 -0.8968,0.8992 -1.19455,1.22931 l -0.55402,0.59105 0.47325,0.0133 c 6.62737,0.15028 12.21376,1.59781 14.84643,3.84255 0.59099,0.50556 1.10468,1.25892 1.24891,1.84671 0.076,0.29938 0.0807,0.87841 0.005,1.18653 -0.27009,1.1394 -1.59167,2.26565 -3.52155,2.99051 -0.30702,0.11515 -0.36469,0.12395 -0.53666,0.0767 -0.26548,-0.0767 -0.44208,-0.29171 -0.44208,-0.54833 0,-0.30375 0.14888,-0.44963 0.70291,-0.6722 1.19461,-0.47591 2.12369,-1.14375 2.4758,-1.78641 0.12578,-0.21819 0.13962,-0.30373 0.13962,-0.66016 0,-0.3641 -0.0142,-0.43639 -0.16734,-0.71061 -0.21236,-0.39369 -0.91991,-1.06699 -1.50627,-1.43543 -2.87625,-1.80399 -8.29986,-2.98175 -13.77885,-2.98175 h -0.90142 l -0.34281,0.43651 c -0.50902,0.65571 -1.61358,2.25351 -2.05103,2.9685 l -0.38783,0.62943 0.26548,0.58233 c 2.67308,5.8264 6.82133,10.75237 9.88347,11.73713 0.66708,0.20624 1.17266,0.20945 1.57314,0.0222 0.76177,-0.35528 1.1658,-1.27642 1.22691,-2.81055 0.0994,-2.57486 -0.87486,-6.13455 -2.69155,-9.81366 -0.18933,-0.38167 -0.30246,-0.67228 -0.30246,-0.77976 0,-0.30812 0.2701,-0.55265 0.60362,-0.5483 0.29787,0 0.42825,0.11188 0.65797,0.57024 1.47396,2.93017 2.45732,5.87241 2.82662,8.43853 0.12125,0.86083 0.12125,2.62203 0,3.25141 -0.1985,1.00679 -0.55059,1.73052 -1.08261,2.24487 -0.65329,0.62066 -1.49701,0.85638 -2.49776,0.70292 m -10.57292,-15.66076 c 0.18935,-0.29608 0.55404,-0.81806 0.81146,-1.17335 0.25732,-0.35976 0.46399,-0.66348 0.46399,-0.68543 0,-0.0647 -2.36266,0.16674 -2.42968,0.23139 -0.0408,0.0423 0.0947,0.53958 0.40984,1.46067 0.2204,0.66784 0.29314,0.80496 0.3428,0.75447 0.0357,-0.0386 0.21697,-0.29938 0.40159,-0.58659"
         id="path19" />
      <path
         style="opacity:0.9;fill:url(#0)"
         inkscape:connector-curvature="0"
         d="m 410.75299,523.60255 c 0,0.92005 -0.7467,1.6668 -1.66683,1.6668 -0.92012,0 -1.66683,-0.74675 -1.66683,-1.6668 0,-0.92014 0.74671,-1.6713 1.66683,-1.6713 0.92013,0 1.66683,0.75116 1.66683,1.6713"
         id="path21" />
    </g>
  </g>
</svg>
