<?xml version="1.0" encoding="UTF-8" standalone="no"?>
<!-- Created with Inkscape (http://www.inkscape.org/) -->

<svg
   xmlns:dc="http://purl.org/dc/elements/1.1/"
   xmlns:cc="http://creativecommons.org/ns#"
   xmlns:rdf="http://www.w3.org/1999/02/22-rdf-syntax-ns#"
   xmlns:svg="http://www.w3.org/2000/svg"
   xmlns="http://www.w3.org/2000/svg"
   xmlns:xlink="http://www.w3.org/1999/xlink"
   xmlns:sodipodi="http://sodipodi.sourceforge.net/DTD/sodipodi-0.dtd"
   xmlns:inkscape="http://www.inkscape.org/namespaces/inkscape"
   width="64"
   version="1.1"
   height="64"
   viewBox="0 0 64 64"
   id="svg2"
   inkscape:version="0.92.2 2405546, 2018-03-11"
   sodipodi:docname="folder-sound.svg">
  <sodipodi:namedview
     pagecolor="#ffffff"
     bordercolor="#666666"
     borderopacity="1"
     objecttolerance="10"
     gridtolerance="10"
     guidetolerance="10"
     inkscape:pageopacity="0"
     inkscape:pageshadow="2"
     inkscape:window-width="1920"
     inkscape:window-height="1022"
     id="namedview17"
     showgrid="true"
     inkscape:zoom="2.6074563"
     inkscape:cx="18.04024"
     inkscape:cy="26.397178"
     inkscape:window-x="0"
     inkscape:window-y="28"
     inkscape:window-maximized="1"
     inkscape:current-layer="g82">
    <inkscape:grid
       type="xygrid"
       id="grid830" />
  </sodipodi:namedview>
  <defs
     id="defs5455">
    <linearGradient
       inkscape:collect="always"
       id="linearGradient836">
      <stop
         style="stop-color:#147eb8;stop-opacity:1;"
         offset="0"
         id="stop832" />
      <stop
         style="stop-color:#22a3e6;stop-opacity:1"
         offset="1"
         id="stop834" />
    </linearGradient>
    <linearGradient
       id="linearGradient4172-7">
      <stop
         style="stop-color:#4183d7"
         id="stop4174-9" />
      <stop
         offset="1"
         style="stop-color:#5b94df"
         id="stop4176-4" />
    </linearGradient>
    <linearGradient
       inkscape:collect="always"
       id="linearGradient4172-5">
      <stop
         style="stop-color:#3daee9"
         id="stop4174-6" />
      <stop
         offset="1"
         style="stop-color:#6cc1ef"
         id="stop4176-6" />
    </linearGradient>
    <linearGradient
       inkscape:collect="always"
       xlink:href="#linearGradient836"
       id="linearGradient838"
       x1="419.57144"
       y1="501.79807"
       x2="419.57144"
       y2="489.79807"
       gradientUnits="userSpaceOnUse" />
    <linearGradient
       inkscape:collect="always"
       xlink:href="#linearGradient4172-5"
       id="linearGradient840"
       gradientUnits="userSpaceOnUse"
       x1="429.57144"
       y1="541.79797"
       x2="429.57144"
       y2="496.798" />
    <linearGradient
       id="a"
       y1="37.110001"
       x1="26.424999"
       y2="24"
       x2="44"
       gradientUnits="userSpaceOnUse">
      <stop
         stop-color="#2980b9"
         id="stop2" />
      <stop
         offset="1"
         stop-color="#1d99f3"
         id="stop4" />
    </linearGradient>
    <linearGradient
       id="c"
       y1="9.3859997"
       x1="8.8400002"
       y2="39.34"
       x2="37.922001"
       gradientUnits="userSpaceOnUse">
      <stop
         stop-color="#faf8f8"
         id="stop8" />
      <stop
         offset="1"
         stop-color="#bfd2d2"
         id="stop10" />
    </linearGradient>
    <linearGradient
       id="e"
       y1="27.6"
       x1="31.537001"
       y2="31"
       x2="35.973"
       gradientUnits="userSpaceOnUse">
      <stop
         id="stop18" />
      <stop
         offset="1"
         stop-opacity="0"
         id="stop20" />
    </linearGradient>
    <linearGradient
       xlink:href="#a"
       id="b"
       y1="39.240002"
       x1="25.868999"
       y2="10.624"
       x2="24.539"
       gradientUnits="userSpaceOnUse" />
    <linearGradient
       xlink:href="#e"
       id="f"
       y1="19"
       x1="26"
       y2="30"
       x2="37"
       gradientUnits="userSpaceOnUse"
       gradientTransform="translate(-10,5)" />
    <linearGradient
       id="d"
       y1="16.621"
       x1="27.040001"
       y2="17.990999"
       x2="24.839001"
       gradientUnits="userSpaceOnUse">
      <stop
         stop-color="#fcfcfc"
         id="stop13" />
      <stop
         offset="1"
         stop-color="#c7c7c7"
         id="stop15" />
    </linearGradient>
    <linearGradient
       id="g"
       y1="23.643999"
       x1="3.783"
       y2="22.495001"
       x2="19.573999"
       gradientUnits="userSpaceOnUse">
      <stop
         stop-color="#2980b9"
         id="stop24" />
      <stop
         offset="1"
         stop-color="#34495e"
         id="stop26" />
    </linearGradient>
    <linearGradient
       y2="24"
       x2="44"
       y1="37.110001"
       x1="26.424999"
       gradientUnits="userSpaceOnUse"
       id="linearGradient137"
       xlink:href="#a"
       inkscape:collect="always" />
    <linearGradient
       y2="31"
       x2="35.973"
       y1="27.6"
       x1="31.537001"
       gradientUnits="userSpaceOnUse"
       id="linearGradient139"
       xlink:href="#e"
       inkscape:collect="always" />
  </defs>
  <metadata
     id="metadata5458">
    <rdf:RDF>
      <cc:Work
         rdf:about="">
        <dc:format>image/svg+xml</dc:format>
        <dc:type
           rdf:resource="http://purl.org/dc/dcmitype/StillImage" />
        <dc:title />
      </cc:Work>
    </rdf:RDF>
  </metadata>
  <g
     inkscape:label="Capa 1"
     inkscape:groupmode="layer"
     id="layer1"
     transform="matrix(1 0 0 1 -384.57143 -483.798)">
    <g
       transform="translate(-5e-6,-5e-5)"
       id="g4193">
      <path
         d="m 387.57144,503.79812 0,1 19.99999,0 3,-5 -4,4 z"
         id="path4224"
         style="fill:#ffffff;fill-opacity:0.235294;fill-rule:evenodd"
         inkscape:connector-curvature="0" />
      <path
         sodipodi:nodetypes="ccccccc"
         inkscape:connector-curvature="0"
         id="rect4160"
         d="m 387.57144,489.798 23.99999,0 5,6 29,0 10e-6,38 -58,0 z"
         style="fill:url(#linearGradient838);fill-opacity:1;fill-rule:evenodd;stroke:none;stroke-width:1px;stroke-linecap:butt;stroke-linejoin:miter;stroke-opacity:1" />
      <path
         sodipodi:nodetypes="cccccccc"
         inkscape:connector-curvature="0"
         style="fill:#ffffff;fill-opacity:0.235294;fill-rule:evenodd"
         id="path4166"
         d="m 411.57143,489.798 5,7 2,0 27,0 0,-1 -27,0 -2,0 z" />
      <path
         sodipodi:nodetypes="ccccccc"
         inkscape:connector-curvature="0"
         id="rect3347"
         d="m 387.57143,502.798 24,0 5,-6 29,0 10e-6,45 -58,0 z"
         style="fill:url(#linearGradient840);fill-opacity:1;fill-rule:evenodd;stroke:none;stroke-width:1px;stroke-linecap:butt;stroke-linejoin:miter;stroke-opacity:1" />
      <path
         d="m 416.57143,496.798 -4,7 -4,0 -21,0 0,-1 21,0 3,0 z"
         id="path4168"
         style="fill:#ffffff;fill-opacity:0.235294;fill-rule:evenodd"
         inkscape:connector-curvature="0"
         sodipodi:nodetypes="cccccccc" />
      <path
         sodipodi:nodetypes="cccccc"
         d="m 387.57143,501.798 0,1 24,0 5,-6 -6,5 z"
         id="path4228"
         style="fill:#000000;fill-opacity:0.23529412;fill-rule:evenodd"
         inkscape:connector-curvature="0" />
      <path
         d="m 387.57143,540.7981 0,1 1,0 56,0 1,0 0,-1 -1,0 -56,0 -1,0 z"
         id="path4151-2"
         style="fill-opacity:0.235294"
         inkscape:connector-curvature="0" />
      <rect
         y="493.798"
         x="390.57144"
         height="3.9999897"
         width="17.999998"
         id="rect4184"
         style="fill:#000000;fill-opacity:0.23529412;stroke:none" />
      <rect
         style="fill:#ffffff;fill-opacity:1;stroke:none"
         id="rect4186"
         width="16.000004"
         height="1.9999911"
         x="391.57144"
         y="494.798" />
      <path
         sodipodi:nodetypes="ccccc"
         inkscape:connector-curvature="0"
         id="rect4190"
         d="m 391.57142,494.798 6.00001,0 0,2 -6.00001,0 z"
         style="fill:#17c4fc;fill-opacity:1;stroke:none" />
    </g>
    <g
       transform="translate(487.13343,482.423)"
       id="g82">
      <g
         id="g145"
         transform="matrix(0.70971414,0,0,0.68344474,-89.218281,22.293868)">
        <g
           id="g37"
           style="color:#000000;stroke-width:3;stroke-linejoin:round">
          <path
             d="M 24,4 C 12.95,4 4,12.954 4,24 4,35.05 12.954,44 24,44 35.05,44 44,35.046 44,24 44,12.95 35.046,4 24,4"
             id="path31"
             inkscape:connector-curvature="0"
             style="fill:url(#linearGradient137)" />
          <circle
             cx="24.5"
             cy="23.5"
             r="18.5"
             id="circle33"
             style="fill:url(#c);stroke-linecap:round" />
          <path
             d="M 40.01,13.424 13.143,38.076 a 18.5,18.5 0 0 0 11.357422,3.923828 18.5,18.5 0 0 0 18.5,-18.5 18.5,18.5 0 0 0 -2.990234,-10.07617"
             id="path35"
             inkscape:connector-curvature="0"
             style="opacity:0.2;fill:url(#linearGradient139)" />
        </g>
        <g
           id="g57"
           style="fill-rule:evenodd">
          <path
             d="m 39.955,11.264 c -0.181,-0.015 -0.374,-0.023 -0.59,0.01 -1.724,0.265 -5.645,1.724 -6.883,2.033 -1.237,0.309 -1.817,0.586 -3.801,0.398 -2.262,-0.214 -3.278,-0.228 -3.873,-0.211 -0.891,-0.079 -1.34,-0.275 -1.34,-0.275 l 0.078,0.877 c -0.592,0.452 -1.785,1.11 -4.234,1.775 -1.591,0.177 -2.917,-0.309 -3.713,0.133 -0.795,0.442 -3.314,1.546 -4.596,1.855 -1.282,0.309 -2.231,0.889 -3,1.141 -1.221,0.398 2.42,6.233 4,7 0,0 -0.547,0.568 -1,1.043 -1.099,0.751 -1.965,0.801 -1.965,0.801 l 0.055,0.602 c -1.276,0.678 -2.54,0.995 -2.961,1.055 -0.107,0.015 -0.524,0.287 -1.129,0.715 2.615,8 10.13,13.785 19,13.785 1.802,0 3.539,-0.26 5.199,-0.707 0.167,-1.087 0.393,-2.627 0.533,-4.084 0.434,-0.638 1.018,-0.646 1.018,-0.646 0,0 -0.75,-2.125 -0.676,-4.684 0.093,-0.607 0.251,-1.179 0.451,-1.723 h 0.756 c 0,0 -0.095,-1.044 0.332,-2.105 1.405,-2.136 3.322,-3.563 4.141,-4.191 0.772,-0.593 4.331,-1.503 5.082,-1.68 0.751,-0.177 1.458,-1.371 1.502,-1.725 C 42.385,22.102 42.12,21.44 42.12,21.44 l -1.988,-0.441 -2.406,-0.271 c 0,0 3.303,-4.894 3.898,-5.461 0.631,-0.601 0.938,-1.34 0.938,-2.047 0,-0.707 -0.52,-1.658 -0.52,-1.658 0,0 -0.597,-0.303 -1.572,-0.266 -0.163,0.006 -0.331,-0.016 -0.512,-0.031"
             id="path39"
             inkscape:connector-curvature="0"
             style="fill:url(#b)" />
          <path
             d="m 12,26 c 0,0 -0.547,0.568 -1,1.043 -1.099,0.751 -1.965,0.801 -1.965,0.801 L 9.09,28.446 C 8.302,28.865 7.544,29.132 6.961,29.3 L 6.113,29.502 5,30.22 c 2.588,7.941 9.919,13.705 18.84,13.777 l 3.164,-8.996 -8,-8 c 0,0 -1.309,0.429 -3.631,0.028 -2.321,-0.401 -3.369,-1.028 -3.369,-1.028"
             id="path41"
             inkscape:connector-curvature="0"
             style="opacity:0.2;fill:url(#f)" />
          <path
             d="m 42.25,12 c 0,0 -0.313,-0.281 -0.656,-0.313 -0.344,-0.031 -1.063,0.094 -1.281,0.063 -0.219,-0.031 -0.969,-0.469 -0.969,-0.469 0,0 1,-0.563 1.344,-0.625 0.344,-0.063 0.938,-0.156 0.938,-0.156 0,0 0.25,0.313 0.438,0.75 0.188,0.438 0.188,0.75 0.188,0.75"
             id="path43"
             inkscape:connector-curvature="0"
             style="fill:#2c3e50" />
          <path
             d="m 40.987,21.23 c -0.675,0.09 -0.805,0.015 -0.805,0.015 0,0 0.156,-0.707 0.325,-0.767 0.169,-0.06 0.662,0.707 0.48,0.752"
             id="path45"
             inkscape:connector-curvature="0"
             style="fill:#fcfcfc" />
          <path
             d="m 41.906,14.969 c 0,0 -2.219,1.063 -3.281,2.719 -1.063,1.656 -1.813,3.344 -1.813,3.344 0,0 0.75,0.156 1.438,0.406 0.688,0.25 1.938,0.313 2.469,0.219 0.531,-0.094 0.688,-0.344 0.156,-0.563 -0.531,-0.219 -1.313,-0.375 -1.344,-0.844 -0.031,-0.469 0.969,-3.188 1.25,-3.625 0.281,-0.438 1.125,-1.656 1.125,-1.656"
             id="path47"
             inkscape:connector-curvature="0"
             style="fill:#2c3e50" />
          <path
             d="m 22.438,20.375 c 0,0 2.749,-0.414 3.796,-1.04 3.414,-2.04 3.298,-3.179 3.298,-3.179 0,0 -3.611,-1.445 -6.108,1.534 -1.045,1.247 -0.986,2.685 -0.986,2.685"
             id="path49"
             inkscape:connector-curvature="0"
             style="fill:#34495e" />
          <path
             d="m 23.467,19.14 c 0,0 2.74,-0.552 3.757,-1.304 1.016,-0.751 1.436,-1.149 1.304,-1.414 -0.133,-0.265 -1.127,-0.663 -2.364,-0.354 -1.237,0.309 -2.121,1.193 -2.364,1.746 -0.243,0.552 -0.486,1.149 -0.331,1.326"
             id="path51"
             inkscape:connector-curvature="0"
             style="fill:url(#d)" />
          <path
             d="m 38.956,21.676 c 1.01,0.116 1.2,0.019 1.2,0.019 0,0 -0.232,-0.91 -0.484,-0.987 -0.252,-0.077 -0.987,0.91 -0.716,0.968"
             id="path53"
             inkscape:connector-curvature="0"
             style="fill:#fcfcfc" />
          <path
             d="m 12.298,24.795 c 1.01,0.774 3.56,1.23 4.811,1.048 C 20.06,25.412 20.212,25.633 19.5,23.75 18.986,22.391 16,21 14,23 l -1,-1 c 0.593,-0.854 -0.5,-2.844 -1,-3 -0.5,-0.156 -2.859,0.486 -3.078,0.705 -0.219,0.219 2.369,4.317 3.376,5.091"
             id="path55"
             inkscape:connector-curvature="0"
             style="fill:url(#g)" />
        </g>
        <path
           d="m 4.01,23.5 c -0.004,0.167 -0.012,0.332 -0.012,0.5 0,11.05 8.954,20 20,20 11.05,0 20,-8.954 20,-20 0,-0.168 -0.008,-0.333 -0.012,-0.5 C 43.72,34.314 34.876,43 23.998,43 13.12,43 4.276,34.314 4.01,23.5"
           id="path59"
           inkscape:connector-curvature="0"
           style="color:#000000;fill:#256592;stroke-width:3;stroke-linejoin:round" />
      </g>
    </g>
  </g>
</svg>
