<?xml version="1.0" encoding="UTF-8" standalone="no"?>
<!-- Created with Inkscape (http://www.inkscape.org/) -->

<svg
   xmlns:dc="http://purl.org/dc/elements/1.1/"
   xmlns:cc="http://creativecommons.org/ns#"
   xmlns:rdf="http://www.w3.org/1999/02/22-rdf-syntax-ns#"
   xmlns:svg="http://www.w3.org/2000/svg"
   xmlns="http://www.w3.org/2000/svg"
   xmlns:xlink="http://www.w3.org/1999/xlink"
   xmlns:sodipodi="http://sodipodi.sourceforge.net/DTD/sodipodi-0.dtd"
   xmlns:inkscape="http://www.inkscape.org/namespaces/inkscape"
   width="64"
   version="1.1"
   height="64"
   viewBox="0 0 64 64"
   id="svg2"
   inkscape:version="0.92.2 2405546, 2018-03-11"
   sodipodi:docname="folder-print.svg">
  <sodipodi:namedview
     pagecolor="#ffffff"
     bordercolor="#666666"
     borderopacity="1"
     objecttolerance="10"
     gridtolerance="10"
     guidetolerance="10"
     inkscape:pageopacity="0"
     inkscape:pageshadow="2"
     inkscape:window-width="1920"
     inkscape:window-height="1022"
     id="namedview17"
     showgrid="true"
     inkscape:zoom="10.429825"
     inkscape:cx="6.8222099"
     inkscape:cy="26.397178"
     inkscape:window-x="0"
     inkscape:window-y="28"
     inkscape:window-maximized="1"
     inkscape:current-layer="layer1">
    <inkscape:grid
       type="xygrid"
       id="grid830" />
  </sodipodi:namedview>
  <defs
     id="defs5455">
    <linearGradient
       inkscape:collect="always"
       id="linearGradient836">
      <stop
         style="stop-color:#147eb8;stop-opacity:1;"
         offset="0"
         id="stop832" />
      <stop
         style="stop-color:#22a3e6;stop-opacity:1"
         offset="1"
         id="stop834" />
    </linearGradient>
    <linearGradient
       id="linearGradient4172-7">
      <stop
         style="stop-color:#4183d7"
         id="stop4174-9" />
      <stop
         offset="1"
         style="stop-color:#5b94df"
         id="stop4176-4" />
    </linearGradient>
    <linearGradient
       inkscape:collect="always"
       id="linearGradient4172-5">
      <stop
         style="stop-color:#3daee9"
         id="stop4174-6" />
      <stop
         offset="1"
         style="stop-color:#6cc1ef"
         id="stop4176-6" />
    </linearGradient>
    <linearGradient
       inkscape:collect="always"
       xlink:href="#linearGradient836"
       id="linearGradient838"
       x1="419.57144"
       y1="501.79807"
       x2="419.57144"
       y2="489.79807"
       gradientUnits="userSpaceOnUse" />
    <linearGradient
       inkscape:collect="always"
       xlink:href="#linearGradient4172-5"
       id="linearGradient840"
       gradientUnits="userSpaceOnUse"
       x1="429.57144"
       y1="541.79797"
       x2="429.57144"
       y2="496.798" />
    <linearGradient
       gradientTransform="matrix(0.87507178,0,0,0.83141382,336.61472,491.79543)"
       xlink:href="#1"
       id="2"
       y1="22.12505"
       x2="0"
       y2="52.12505"
       gradientUnits="userSpaceOnUse" />
    <linearGradient
       id="1">
      <stop
         stop-color="#00a199"
         id="stop3" />
      <stop
         offset="1"
         stop-color="#00f89a"
         stop-opacity="0.988235"
         id="stop5" />
    </linearGradient>
    <linearGradient
       gradientTransform="matrix(0.842488,0,0,0.842488,339.23816,490.78108)"
       xlink:href="#1"
       id="0"
       y1="32.12505"
       x2="0"
       y2="47.12505"
       gradientUnits="userSpaceOnUse" />
  </defs>
  <metadata
     id="metadata5458">
    <rdf:RDF>
      <cc:Work
         rdf:about="">
        <dc:format>image/svg+xml</dc:format>
        <dc:type
           rdf:resource="http://purl.org/dc/dcmitype/StillImage" />
        <dc:title></dc:title>
      </cc:Work>
    </rdf:RDF>
  </metadata>
  <g
     inkscape:label="Capa 1"
     inkscape:groupmode="layer"
     id="layer1"
     transform="matrix(1 0 0 1 -384.57143 -483.798)">
    <g
       transform="translate(-5e-6,-5e-5)"
       id="g4193">
      <path
         d="m 387.57144,503.79812 0,1 19.99999,0 3,-5 -4,4 z"
         id="path4224"
         style="fill:#ffffff;fill-opacity:0.235294;fill-rule:evenodd"
         inkscape:connector-curvature="0" />
      <path
         sodipodi:nodetypes="ccccccc"
         inkscape:connector-curvature="0"
         id="rect4160"
         d="m 387.57144,489.798 23.99999,0 5,6 29,0 10e-6,38 -58,0 z"
         style="fill:url(#linearGradient838);fill-opacity:1;fill-rule:evenodd;stroke:none;stroke-width:1px;stroke-linecap:butt;stroke-linejoin:miter;stroke-opacity:1" />
      <path
         sodipodi:nodetypes="cccccccc"
         inkscape:connector-curvature="0"
         style="fill:#ffffff;fill-opacity:0.235294;fill-rule:evenodd"
         id="path4166"
         d="m 411.57143,489.798 5,7 2,0 27,0 0,-1 -27,0 -2,0 z" />
      <path
         sodipodi:nodetypes="ccccccc"
         inkscape:connector-curvature="0"
         id="rect3347"
         d="m 387.57143,502.798 24,0 5,-6 29,0 10e-6,45 -58,0 z"
         style="fill:url(#linearGradient840);fill-opacity:1;fill-rule:evenodd;stroke:none;stroke-width:1px;stroke-linecap:butt;stroke-linejoin:miter;stroke-opacity:1" />
      <path
         d="m 416.57143,496.798 -4,7 -4,0 -21,0 0,-1 21,0 3,0 z"
         id="path4168"
         style="fill:#ffffff;fill-opacity:0.235294;fill-rule:evenodd"
         inkscape:connector-curvature="0"
         sodipodi:nodetypes="cccccccc" />
      <path
         sodipodi:nodetypes="cccccc"
         d="m 387.57143,501.798 0,1 24,0 5,-6 -6,5 z"
         id="path4228"
         style="fill:#000000;fill-opacity:0.23529412;fill-rule:evenodd"
         inkscape:connector-curvature="0" />
      <path
         d="m 387.57143,540.7981 0,1 1,0 56,0 1,0 0,-1 -1,0 -56,0 -1,0 z"
         id="path4151-2"
         style="fill-opacity:0.235294"
         inkscape:connector-curvature="0" />
      <rect
         y="493.798"
         x="390.57144"
         height="3.9999897"
         width="17.999998"
         id="rect4184"
         style="fill:#000000;fill-opacity:0.23529412;stroke:none" />
      <rect
         style="fill:#ffffff;fill-opacity:1;stroke:none"
         id="rect4186"
         width="16.000004"
         height="1.9999911"
         x="391.57144"
         y="494.798" />
      <path
         sodipodi:nodetypes="ccccc"
         inkscape:connector-curvature="0"
         id="rect4190"
         d="m 391.57142,494.798 6.00001,0 0,2 -6.00001,0 z"
         style="fill:#17c4fc;fill-opacity:1;stroke:none" />
    </g>
    <g
       id="g26"
       transform="matrix(0.04854909,0,0,0.05136059,403.71428,508.27683)">
      <path
         style="fill:#7383bf"
         d="M 494.345,88.276 H 17.655 C 7.91,88.276 0,96.177 0,105.931 v 300.138 c 0,9.746 7.91,17.655 17.655,17.655 h 70.621 l 17.655,-88.276 h 300.138 l 17.655,88.276 h 70.621 c 9.746,0 17.655,-7.91 17.655,-17.655 V 105.931 c 0,-9.754 -7.91,-17.655 -17.655,-17.655"
         id="path2"
         inkscape:connector-curvature="0" />
      <g
         id="g8">
        <path
           style="fill:#434c6d"
           d="m 0,300.138 v 105.931 c 0,9.746 7.91,17.655 17.655,17.655 h 70.621 l 17.655,-88.276 h 300.138 l 17.655,88.276 h 70.621 c 9.746,0 17.655,-7.91 17.655,-17.655 V 300.138 Z"
           id="path4"
           inkscape:connector-curvature="0" />
        <path
           style="fill:#434c6d"
           d="M 388.414,220.69 H 123.586 c -19.5,0 -35.31,-15.81 -35.31,-35.31 V 88.276 h 335.448 v 97.103 c 0,19.5 -15.81,35.311 -35.31,35.311"
           id="path6"
           inkscape:connector-curvature="0" />
      </g>
      <g
         id="g14">
        <path
           style="fill:#edebda"
           d="M 430.611,512 H 81.392 c -5.57,0 -9.754,-5.094 -8.66,-10.558 l 33.201,-165.994 h 300.138 l 33.201,165.994 c 1.085,5.464 -3.09,10.558 -8.661,10.558"
           id="path10"
           inkscape:connector-curvature="0" />
        <path
           style="fill:#edebda"
           d="M 397.241,88.276 H 114.759 V 8.828 C 114.759,3.955 118.714,0 123.587,0 h 264.828 c 4.873,0 8.828,3.955 8.828,8.828 v 79.448 z"
           id="path12"
           inkscape:connector-curvature="0" />
      </g>
      <polygon
         style="fill:#a4e869"
         points="282.483,132.414 282.483,185.379 388.414,185.379 388.414,132.414 "
         id="polygon16" />
      <g
         id="g24">
        <path
           style="fill:#cec9ae"
           d="M 326.621,388.414 H 185.379 c -4.882,0 -8.828,-3.946 -8.828,-8.828 0,-4.882 3.946,-8.828 8.828,-8.828 H 326.62 c 4.882,0 8.828,3.946 8.828,8.828 0,4.882 -3.946,8.828 -8.827,8.828"
           id="path18"
           inkscape:connector-curvature="0" />
        <path
           style="fill:#cec9ae"
           d="M 353.103,432.552 H 158.897 c -4.882,0 -8.828,-3.946 -8.828,-8.828 0,-4.882 3.946,-8.828 8.828,-8.828 h 194.207 c 4.882,0 8.828,3.946 8.828,8.828 -0.001,4.882 -3.947,8.828 -8.829,8.828"
           id="path20"
           inkscape:connector-curvature="0" />
        <path
           style="fill:#cec9ae"
           d="M 379.586,476.69 H 132.414 c -4.882,0 -8.828,-3.946 -8.828,-8.828 0,-4.882 3.946,-8.828 8.828,-8.828 h 247.172 c 4.882,0 8.828,3.946 8.828,8.828 0,4.882 -3.946,8.828 -8.828,8.828"
           id="path22"
           inkscape:connector-curvature="0" />
      </g>
    </g>
  </g>
</svg>
